<?xml version="1.0" encoding="UTF-8"?>
<svg version="1.1" xmlns="http://www.w3.org/2000/svg" width="64" height="64">
<path d="M0 0 C4.34336965 1.50163331 7.00827959 4.45548673 10.2109375 7.66796875 C10.86449219 8.28091797 11.51804687 8.89386719 12.19140625 9.52539062 C16.74282226 14.04326988 16.74282226 14.04326988 17.13671875 18.0078125 C15.34577426 22.10063158 12.82206268 24.76232138 9.6484375 27.85546875 C9.08318359 28.4484375 8.51792969 29.04140625 7.93554688 29.65234375 C5.29761194 32.27517024 3.50500474 33.8006404 -0.12890625 34.77734375 C-4.74857405 33.56445799 -7.28288343 30.73400946 -10.5390625 27.35546875 C-11.17972656 26.73800781 -11.82039062 26.12054688 -12.48046875 25.484375 C-15.23204121 22.69760118 -16.95286256 20.76942237 -17.9765625 16.9453125 C-16.76736898 12.53291884 -14.08710511 10.21900606 -10.7890625 7.16796875 C-9.88414063 6.29108398 -9.88414063 6.29108398 -8.9609375 5.39648438 C-3.30200669 -0.0298015 -3.30200669 -0.0298015 0 0 Z M-1.1640625 3.98046875 C-1.1640625 5.30046875 -1.1640625 6.62046875 -1.1640625 7.98046875 C-0.5040625 7.65046875 0.1559375 7.32046875 0.8359375 6.98046875 C0.5059375 5.99046875 0.1759375 5.00046875 -0.1640625 3.98046875 C-0.4940625 3.98046875 -0.8240625 3.98046875 -1.1640625 3.98046875 Z M-13.1640625 15.98046875 C-12.8340625 16.97046875 -12.5040625 17.96046875 -12.1640625 18.98046875 C-11.5040625 18.65046875 -10.8440625 18.32046875 -10.1640625 17.98046875 C-10.1640625 17.32046875 -10.1640625 16.66046875 -10.1640625 15.98046875 C-11.1540625 15.98046875 -12.1440625 15.98046875 -13.1640625 15.98046875 Z M-2.1640625 15.98046875 C-1.8340625 16.97046875 -1.5040625 17.96046875 -1.1640625 18.98046875 C-0.5040625 18.65046875 0.1559375 18.32046875 0.8359375 17.98046875 C0.8359375 17.32046875 0.8359375 16.66046875 0.8359375 15.98046875 C-0.1540625 15.98046875 -1.1440625 15.98046875 -2.1640625 15.98046875 Z M8.8359375 15.98046875 C9.1659375 16.97046875 9.4959375 17.96046875 9.8359375 18.98046875 C10.4959375 18.98046875 11.1559375 18.98046875 11.8359375 18.98046875 C11.8359375 17.99046875 11.8359375 17.00046875 11.8359375 15.98046875 C10.8459375 15.98046875 9.8559375 15.98046875 8.8359375 15.98046875 Z M-2.1640625 26.98046875 C-1.8340625 27.97046875 -1.5040625 28.96046875 -1.1640625 29.98046875 C-0.5040625 29.98046875 0.1559375 29.98046875 0.8359375 29.98046875 C0.8359375 28.99046875 0.8359375 28.00046875 0.8359375 26.98046875 C-0.1540625 26.98046875 -1.1440625 26.98046875 -2.1640625 26.98046875 Z " fill="#000000" transform="translate(20.1640625,16.01953125)"/>
<path d="M0 0 C5.11993095 1.49451845 8.14867551 4.63233738 11.8125 8.3125 C12.40998047 8.88162109 13.00746094 9.45074219 13.62304688 10.03710938 C16.01606142 12.41918442 17.74737742 14.22364769 18.80078125 17.4609375 C17.47176653 21.6748866 14.48491926 24.27454065 11.375 27.3125 C10.75753906 27.95767578 10.14007813 28.60285156 9.50390625 29.26757812 C6.66119228 32.09533044 4.83256256 33.8053885 0.875 34.73046875 C-3.01607319 33.7418401 -4.66648708 31.92812207 -7.375 29 C-8.24898437 28.071875 -9.12296875 27.14375 -10.0234375 26.1875 C-11.00183594 25.1046875 -11.00183594 25.1046875 -12 24 C-11.55527344 23.49210937 -11.11054688 22.98421875 -10.65234375 22.4609375 C-6.91777907 18.16263953 -6.91777907 18.16263953 -6.125 12.75 C-6.41375 11.8425 -6.7025 10.935 -7 10 C-7 6 -7 6 -5.46875 4.296875 C-4.8190625 3.78640625 -4.169375 3.2759375 -3.5 2.75 C-2.8503125 2.22921875 -2.200625 1.7084375 -1.53125 1.171875 C-1.0259375 0.78515625 -0.520625 0.3984375 0 0 Z M0 16 C0 16.99 0 17.98 0 19 C0.99 18.67 1.98 18.34 3 18 C2.67 17.34 2.34 16.68 2 16 C1.34 16 0.68 16 0 16 Z " fill="#000000" transform="translate(43,19)"/>
<path d="M0 0 C7.92 0 15.84 0 24 0 C25.59412284 3.18824568 25.10174735 6.62896662 25.0625 10.125 C25.05798828 10.87910156 25.05347656 11.63320312 25.04882812 12.41015625 C25.03703499 14.27347127 25.01909942 16.13674555 25 18 C20.25 19.125 20.25 19.125 18 18 C17.67 18.66 17.34 19.32 17 20 C17.66 20 18.32 20 19 20 C17.60840337 23.47899158 16.36748512 24.48052501 13 26 C12.40832031 25.37351562 11.81664062 24.74703125 11.20703125 24.1015625 C10.41683594 23.28429687 9.62664063 22.46703125 8.8125 21.625 C8.03519531 20.81289063 7.25789063 20.00078125 6.45703125 19.1640625 C4.012945 17.01140148 2.07383443 15.99367294 -1 15 C-1.02693575 12.87506859 -1.04636628 10.75004088 -1.0625 8.625 C-1.07410156 7.44164062 -1.08570312 6.25828125 -1.09765625 5.0390625 C-1 2 -1 2 0 0 Z M4 4 C4 4.99 4 5.98 4 7 C4.99 7 5.98 7 7 7 C7 6.01 7 5.02 7 4 C6.01 4 5.02 4 4 4 Z M11 11 C11 11.99 11 12.98 11 14 C11.99 13.67 12.98 13.34 14 13 C13.67 12.34 13.34 11.68 13 11 C12.34 11 11.68 11 11 11 Z " fill="#000000" transform="translate(20,0)"/>
<path d="M0 0 C3.45130969 1.55634531 5.55079764 4.36537438 8.0703125 7.12109375 C10.1752901 9.0287297 11.25360387 9.7356323 14.0703125 9.93359375 C17.10293383 8.17467338 19.59221538 6.41169087 22.0703125 3.93359375 C24.1640625 3.921875 24.1640625 3.921875 26.5703125 4.24609375 C27.364375 4.34535156 28.1584375 4.44460937 28.9765625 4.546875 C31.0703125 4.93359375 31.0703125 4.93359375 33.0703125 5.93359375 C32.7403125 7.25359375 32.4103125 8.57359375 32.0703125 9.93359375 C30.42717589 10.42192781 28.78059784 10.89868341 27.1328125 11.37109375 C26.21628906 11.63792969 25.29976562 11.90476562 24.35546875 12.1796875 C7.9780819 15.93811278 -15.76813057 16.87536167 -30.9296875 8.93359375 C-30.9296875 7.94359375 -30.9296875 6.95359375 -30.9296875 5.93359375 C-29.37209407 5.39826552 -27.80830705 4.88093997 -26.2421875 4.37109375 C-25.37207031 4.08105469 -24.50195312 3.79101562 -23.60546875 3.4921875 C-20.63441258 2.87195242 -18.81339509 3.0345844 -15.9296875 3.93359375 C-15.2696875 4.59359375 -14.6096875 5.25359375 -13.9296875 5.93359375 C-11.10091847 6.60246548 -11.10091847 6.60246548 -7.9296875 5.93359375 C-6.22781207 4.45388433 -4.83298607 2.90634705 -3.421875 1.1484375 C-1.9296875 -0.06640625 -1.9296875 -0.06640625 0 0 Z " fill="#000000" transform="translate(30.9296875,44.06640625)"/>
<path d="M0 0 C1.051875 0.30744141 1.051875 0.30744141 2.125 0.62109375 C3.548125 1.02521484 3.548125 1.02521484 5 1.4375 C5.928125 1.70433594 6.85625 1.97117188 7.8125 2.24609375 C25.44327101 6.4161168 46.79576016 5.73474661 64 0 C64 1.98 64 3.96 64 6 C54.22785856 9.94314479 44.99521779 10.18641822 34.54980469 10.18530273 C32.2699899 10.1874809 29.99066646 10.20565267 27.7109375 10.22460938 C7.8986287 10.30269782 7.8986287 10.30269782 0 6 C0 4.02 0 2.04 0 0 Z " fill="#000000" transform="translate(0,54)"/>
</svg>
