<?xml version="1.0" encoding="UTF-8"?>
<svg version="1.1" xmlns="http://www.w3.org/2000/svg" width="64" height="64">
<path d="M0 0 C4.94586526 2.29629459 7.30760518 5.31323865 10 10 C12.1101534 16.33046019 10.9520648 21.57876819 8.4140625 27.55859375 C5.77700379 32.1115266 1.70125752 35.64937124 -3 38 C-7.25425939 38.70904323 -9.62590859 37.89716867 -13.0625 35.5 C-18.10186181 31.42603318 -21.72218077 26.41465255 -23 20 C-23.57561959 14.01355631 -22.3155924 9.90409165 -19 5 C-13.01724367 -0.55541659 -7.96766332 -0.74045039 0 0 Z " fill="#000000" transform="translate(38,0)"/>
<path d="M0 0 C-0.32226562 0.85851562 -0.64453125 1.71703125 -0.9765625 2.6015625 C-3.01878516 9.3829889 -3.37136863 17.14931098 -0.0625 23.5625 C0.29714844 24.14128906 0.65679688 24.72007813 1.02734375 25.31640625 C2.10561453 27.1828107 2.56316319 28.89858503 3 31 C0.02536663 32.48731668 -1.67278843 32.4313052 -5 32 C-10.18801229 29.16571729 -14.28634817 25.78357494 -16 20 C-16.67266382 15.0278355 -17.22942079 10.2107016 -14.72265625 5.703125 C-10.03500031 0.15587445 -7.05799277 -0.11383859 0 0 Z " fill="#000000" transform="translate(16,4)"/>
<path d="M0 0 C6.54786774 -0.38516869 9.39074166 0.81386464 14.3125 4.9375 C16.99822383 9.8115914 16.7000566 14.56554002 16 20 C14.46990292 25.00676737 11.10015803 28.31400925 6.80859375 31.12890625 C4.1118628 32.4277637 1.9258031 32.4082516 -1 32 C-1.66 31.67 -2.32 31.34 -3 31 C-2.39914561 28.10957413 -1.48712594 26.05634246 0.0625 23.5625 C3.37136863 17.14931098 3.01878516 9.3829889 0.9765625 2.6015625 C0.65429688 1.74304688 0.33203125 0.88453125 0 0 Z " fill="#000000" transform="translate(48,4)"/>
<path d="M0 0 C2.375 -0.125 2.375 -0.125 5 0 C7 2 7 2 7.375 4.875 C6.92491816 8.62568199 5.87398748 9.66488517 3 12 C3.33 12.99 3.66 13.98 4 15 C4.12781786 17.67394964 4.04391871 20.32095857 4 23 C2.68 23 1.36 23 0 23 C-0.309375 22.030625 -0.61875 21.06125 -0.9375 20.0625 C-1.69523342 17.15934208 -1.69523342 17.15934208 -3 16 C-3.3125 13.1875 -3.3125 13.1875 -3 10 C-2.319375 9.34 -1.63875 8.68 -0.9375 8 C0.0215625 7.01 0.0215625 7.01 1 6 C0.85650653 2.80045046 0.85650653 2.80045046 0 0 Z " fill="#000000" transform="translate(30,41)"/>
<path d="M0 0 C0.25 2.75 0.25 2.75 0 6 C-2 8.375 -2 8.375 -4 10 C-3.67 10.99 -3.34 11.98 -3 13 C-2.87218214 15.67394964 -2.95608129 18.32095857 -3 21 C-4.32 21 -5.64 21 -7 21 C-7.309375 20.030625 -7.61875 19.06125 -7.9375 18.0625 C-8.69523342 15.15934208 -8.69523342 15.15934208 -10 14 C-10.3125 11.1875 -10.3125 11.1875 -10 8 C-8.70766393 6.62689293 -7.37562854 5.28965176 -6 4 C-6 2.68 -6 1.36 -6 0 C-3 -1 -3 -1 0 0 Z " fill="#000000" transform="translate(55,39)"/>
<path d="M0 0 C1.67542976 0.28604898 3.34385343 0.61781233 5 1 C5.103125 1.763125 5.20625 2.52625 5.3125 3.3125 C5.74744765 6.02979007 5.74744765 6.02979007 7.5625 7.4375 C9 9 9 9 9.3125 12.0625 C9 15 9 15 7 17 C6.35232207 19.57061311 6.35232207 19.57061311 6 22 C4.68 22 3.36 22 2 22 C2 18 2 14 2 10 C1.505 9.54625 1.01 9.0925 0.5 8.625 C-1 7 -1 7 -1.25 3.875 C-1 1 -1 1 0 0 Z " fill="#000000" transform="translate(10,38)"/>
</svg>
