<?xml version="1.0" encoding="UTF-8"?>
<svg version="1.1" xmlns="http://www.w3.org/2000/svg" width="64" height="64">
<path d="M0 0 C0.78532608 -0.0066568 1.57065216 -0.0133136 2.379776 -0.02017212 C4.03986266 -0.03029165 5.69998995 -0.03498935 7.36010742 -0.03466797 C9.89765529 -0.03904096 12.43346305 -0.07536422 14.97070312 -0.11328125 C16.58462947 -0.11914967 18.19856408 -0.1231189 19.8125 -0.125 C20.56989975 -0.13937103 21.3272995 -0.15374207 22.10765076 -0.16854858 C25.64922942 -0.13788817 27.58416702 0.03374907 30.42016602 2.23974609 C32.82168375 5.48230488 33.10115408 7.28241213 33.11791992 11.27294922 C33.12429977 12.30096649 33.13067963 13.32898376 33.13725281 14.38815308 C33.13836563 15.50271881 33.13947845 16.61728455 33.140625 17.765625 C33.1456176 19.47844162 33.1456176 19.47844162 33.15071106 21.2258606 C33.15578134 23.64519853 33.15811935 26.06454348 33.15795898 28.48388672 C33.16014308 32.18859377 33.17829141 35.89300202 33.19726562 39.59765625 C33.20019997 41.94531148 33.20218449 44.29296813 33.203125 46.640625 C33.21031052 47.75114227 33.21749603 48.86165955 33.22489929 50.00582886 C33.22182266 51.04015045 33.21874603 52.07447205 33.21557617 53.14013672 C33.21700119 54.04899628 33.21842621 54.95785583 33.21989441 55.89425659 C32.95153089 58.54456786 32.42206248 60.11016538 30.97265625 62.3359375 C27.23664689 64.82661041 24.27467892 64.65918691 19.9453125 64.671875 C19.15998642 64.6785318 18.37466034 64.6851886 17.5655365 64.69204712 C15.90544984 64.70216665 14.24532255 64.70686435 12.58520508 64.70654297 C10.04765721 64.71091596 7.51184945 64.74723922 4.97460938 64.78515625 C3.36068303 64.79102467 1.74674842 64.7949939 0.1328125 64.796875 C-1.00328712 64.81843155 -1.00328712 64.81843155 -2.16233826 64.84042358 C-5.70391692 64.80976317 -7.63885452 64.63812593 -10.47485352 62.43212891 C-12.87637125 59.18957012 -13.15584158 57.38946287 -13.17260742 53.39892578 C-13.17898727 52.37090851 -13.18536713 51.34289124 -13.19194031 50.28372192 C-13.19305313 49.16915619 -13.19416595 48.05459045 -13.1953125 46.90625 C-13.2003051 45.19343338 -13.2003051 45.19343338 -13.20539856 43.4460144 C-13.21046884 41.02667647 -13.21280685 38.60733152 -13.21264648 36.18798828 C-13.21483058 32.48328123 -13.23297891 28.77887298 -13.25195312 25.07421875 C-13.25488747 22.72656352 -13.25687199 20.37890687 -13.2578125 18.03125 C-13.26499802 16.92073273 -13.27218353 15.81021545 -13.27958679 14.66604614 C-13.27651016 13.63172455 -13.27343353 12.59740295 -13.27026367 11.53173828 C-13.27168869 10.62287872 -13.27311371 9.71401917 -13.27458191 8.77761841 C-13.00621839 6.12730714 -12.47674998 4.56170962 -11.02734375 2.3359375 C-7.29133439 -0.15473541 -4.32936642 0.01268809 0 0 Z M-6.02734375 8.3359375 C-5.02734375 10.3359375 -5.02734375 10.3359375 -5.02734375 10.3359375 Z M-4.02734375 8.3359375 C-3.02734375 11.3359375 -3.02734375 11.3359375 -3.02734375 11.3359375 Z M-5.02734375 15.3359375 C-5.35734375 15.9959375 -5.68734375 16.6559375 -6.02734375 17.3359375 C-5.36734375 17.9959375 -4.70734375 18.6559375 -4.02734375 19.3359375 C-3.69734375 18.3459375 -3.36734375 17.3559375 -3.02734375 16.3359375 C-3.68734375 16.0059375 -4.34734375 15.6759375 -5.02734375 15.3359375 Z M8.97265625 20.3359375 C6.92407359 22.43595423 6.92407359 22.43595423 4.84765625 25.0859375 C4.12320312 25.96765625 3.39875 26.849375 2.65234375 27.7578125 C0.60873593 30.38167549 0.60873593 30.38167549 0.97265625 34.3359375 C2.71510272 36.99851088 2.71510272 36.99851088 4.97265625 39.5859375 C5.71515625 40.47796875 6.45765625 41.37 7.22265625 42.2890625 C8.08890625 43.30226563 8.08890625 43.30226563 8.97265625 44.3359375 C12.52605883 43.15146997 13.3862364 41.93615245 15.66015625 39.0234375 C16.28277344 38.24355469 16.90539062 37.46367188 17.546875 36.66015625 C19.32125488 34.22212251 19.32125488 34.22212251 18.97265625 30.3359375 C17.75605737 28.4585304 17.75605737 28.4585304 16.09765625 26.7734375 C14.14713246 24.65801435 12.58400782 22.75296485 10.97265625 20.3359375 C10.31265625 20.3359375 9.65265625 20.3359375 8.97265625 20.3359375 Z M23.97265625 45.3359375 C23.64265625 46.3259375 23.31265625 47.3159375 22.97265625 48.3359375 C23.63265625 48.9959375 24.29265625 49.6559375 24.97265625 50.3359375 C25.30265625 49.3459375 25.63265625 48.3559375 25.97265625 47.3359375 C25.31265625 46.6759375 24.65265625 46.0159375 23.97265625 45.3359375 Z M22.97265625 53.3359375 C23.97265625 56.3359375 23.97265625 56.3359375 23.97265625 56.3359375 Z M24.97265625 54.3359375 C25.97265625 56.3359375 25.97265625 56.3359375 25.97265625 56.3359375 Z " fill="#000000" transform="translate(22.02734375,-0.3359375)"/>
</svg>
