<?xml version="1.0" encoding="UTF-8"?>
<svg version="1.1" xmlns="http://www.w3.org/2000/svg" width="64" height="64">
<path d="M0 0 C0.66 0 1.32 0 2 0 C3.49821059 3.37097383 4 5.20442119 4 9 C5.423125 8.9690625 5.423125 8.9690625 6.875 8.9375 C10 9 10 9 12 10 C12 10.99 12 11.98 12 13 C11.19433594 13.43054687 10.38867188 13.86109375 9.55859375 14.3046875 C6.72145127 15.77197582 6.72145127 15.77197582 6.28515625 18.8203125 C6.21167969 19.91085938 6.13820312 21.00140625 6.0625 22.125 C5.12108403 29.81893601 2.80166338 34.93142188 -3.2890625 39.84765625 C-9.51502778 44.13687988 -14.44060866 45.73655608 -22 45 C-25.63644512 43.5858269 -28.55683037 42.08610901 -31 39 C-33.0157881 32.95263571 -33.12077772 25.57559092 -30.5 19.6875 C-26.22882259 12.51909036 -20.38147896 8.53205918 -12.3984375 6.46875 C-10 6 -10 6 -6.0625 5.625 C-2.78826794 5.32069844 -2.78826794 5.32069844 -1.1875 2.4375 C-0.795625 1.633125 -0.40375 0.82875 0 0 Z M-11 10 C-11.99 10.66 -12.98 11.32 -14 12 C-12.02 11.67 -10.04 11.34 -8 11 C-8.99 10.67 -9.98 10.34 -11 10 Z " fill="#000000" transform="translate(32,19)"/>
<path d="M0 0 C0 1.32 0 2.64 0 4 C0.969375 4.309375 1.93875 4.61875 2.9375 4.9375 C6 6 6 6 7 7 C7.5794702 13.25827815 7.5794702 13.25827815 5.4375 16 C3 17 3 17 -0.33203125 16.25 C-4.08953353 15.58173307 -4.08953353 15.58173307 -6.6953125 18.125 C-7.49710938 19.07375 -8.29890625 20.0225 -9.125 21 C-11.5703125 23.875 -11.5703125 23.875 -14 26 C-16.8046875 25.8125 -16.8046875 25.8125 -19 25 C-19.3125 22.83203125 -19.3125 22.83203125 -19 20 C-16.8125 17.32421875 -16.8125 17.32421875 -14 14.6875 C-13.071875 13.80449219 -12.14375 12.92148438 -11.1875 12.01171875 C-10.465625 11.34785156 -9.74375 10.68398437 -9 10 C-9.33 9.34 -9.66 8.68 -10 8 C-10.3125 5.0625 -10.3125 5.0625 -10 2 C-6.92702006 -1.66393762 -4.38919352 -1.09729838 0 0 Z " fill="#000000" transform="translate(56,1)"/>
<path d="M0 0 C2.64 0 5.28 0 8 0 C8 2.97 8 5.94 8 9 C10.64 9 13.28 9 16 9 C16 11.31 16 13.62 16 16 C13.36 16 10.72 16 8 16 C8.020625 17.299375 8.04125 18.59875 8.0625 19.9375 C8.08399454 21.29165633 8.07148199 22.64756083 8 24 C7 25 7 25 3.4375 25.0625 C2.303125 25.041875 1.16875 25.02125 0 25 C0 22.03 0 19.06 0 16 C-2.97 16 -5.94 16 -9 16 C-9 13.69 -9 11.38 -9 9 C-6.36 8.67 -3.72 8.34 -1 8 C-0.67 5.36 -0.34 2.72 0 0 Z " fill="#000000" transform="translate(48,39)"/>
</svg>
