<?xml version="1.0" encoding="UTF-8"?>
<svg version="1.1" xmlns="http://www.w3.org/2000/svg" width="64" height="64">
<path d="M0 0 C1.03898437 0.52464844 2.07796875 1.04929687 3.1484375 1.58984375 C5.625 3.0625 5.625 3.0625 6.625 5.0625 C6.82512995 7.36971244 6.93788327 9.68495729 7 12 C7.04898438 13.24652344 7.09796875 14.49304688 7.1484375 15.77734375 C6.625 19.0625 6.625 19.0625 4.296875 20.80859375 C3.41515625 21.22238281 2.5334375 21.63617187 1.625 22.0625 C-0.06786779 23.58853257 -0.06786779 23.58853257 -1.5 25.1875 C-3.58473082 27.45253187 -4.32351325 28.04533775 -7.375 29.0625 C-8.58382096 31.06266466 -8.58382096 31.06266466 -9.375 33.0625 C-9.705 33.0625 -10.035 33.0625 -10.375 33.0625 C-10.375 26.4625 -10.375 19.8625 -10.375 13.0625 C-15.985 10.4225 -21.595 7.7825 -27.375 5.0625 C-27.375 4.4025 -27.375 3.7425 -27.375 3.0625 C-25.19784041 1.85162483 -23.01162881 0.66974937 -20.8125 -0.5 C-20.20341797 -0.84224609 -19.59433594 -1.18449219 -18.96679688 -1.53710938 C-12.02754593 -5.17195511 -6.80358568 -3.50461781 0 0 Z M-12.375 3.0625 C-12.375 3.7225 -12.375 4.3825 -12.375 5.0625 C-11.385 5.0625 -10.395 5.0625 -9.375 5.0625 C-9.375 4.4025 -9.375 3.7425 -9.375 3.0625 C-10.365 3.0625 -11.355 3.0625 -12.375 3.0625 Z M2.625 10.0625 C2.955 11.0525 3.285 12.0425 3.625 13.0625 C3.955 12.0725 4.285 11.0825 4.625 10.0625 C3.965 10.0625 3.305 10.0625 2.625 10.0625 Z M-7.375 15.0625 C-6.375 18.0625 -6.375 18.0625 -6.375 18.0625 Z M-1.375 18.0625 C-1.705 19.0525 -2.035 20.0425 -2.375 21.0625 C-1.715 21.0625 -1.055 21.0625 -0.375 21.0625 C-0.705 20.0725 -1.035 19.0825 -1.375 18.0625 Z " fill="#000000" transform="translate(31.375,3.9375)"/>
<path d="M0 0 C1.97929118 2.96893676 3.02741785 5.51620619 4.1875 8.875 C4.55230469 9.90367188 4.91710937 10.93234375 5.29296875 11.9921875 C6.08542789 15.36342253 6.28299061 16.78758888 5 20 C3.03922334 22.46982084 0.83567097 24.63171459 -1.4375 26.8125 C-2.03626953 27.40998047 -2.63503906 28.00746094 -3.25195312 28.62304688 C-7.71894643 33 -7.71894643 33 -10 33 C-10.867242 30.58732675 -11.71896936 28.17095531 -12.5625 25.75 C-12.80935547 25.06808594 -13.05621094 24.38617188 -13.31054688 23.68359375 C-15.39294438 17.64170805 -15.39294438 17.64170805 -14 14 C-12.60131836 12.26074219 -12.60131836 12.26074219 -10.83984375 10.546875 C-10.21142578 9.928125 -9.58300781 9.309375 -8.93554688 8.671875 C-8.27619141 8.03765625 -7.61683594 7.4034375 -6.9375 6.75 C-6.27427734 6.1003125 -5.61105469 5.450625 -4.92773438 4.78125 C-3.29170683 3.1805324 -1.64909088 1.58723807 0 0 Z M-2 6 C-2.33 6.99 -2.66 7.98 -3 9 C-2.34 9 -1.68 9 -1 9 C-1.33 8.01 -1.66 7.02 -2 6 Z M-7 24 C-7 27 -7 27 -7 27 Z " fill="#000000" transform="translate(36,24)"/>
<path d="M0 0 C2.42661172 0.52960041 4.34115519 1.35820218 6.55859375 2.4765625 C8.41068397 3.19030753 10.26486763 3.89864377 12.12109375 4.6015625 C13.60316043 5.21965423 15.0834382 5.84215322 16.55859375 6.4765625 C14.58813196 8.84111664 12.58743344 11.16282191 10.55859375 13.4765625 C9.93210937 14.229375 9.305625 14.9821875 8.66015625 15.7578125 C3.62811312 21.40643008 3.62811312 21.40643008 -1.25390625 21.7265625 C-3.2109375 21.24609375 -3.2109375 21.24609375 -5.44140625 20.4765625 C-6.41464844 20.15042969 -7.38789062 19.82429688 -8.390625 19.48828125 C-11.09722996 18.53525134 -13.77302114 17.53116323 -16.44140625 16.4765625 C-14.00471379 10.49426365 -6.60597778 1.28948686 0 0 Z M-0.44140625 3.4765625 C-1.43140625 3.9715625 -1.43140625 3.9715625 -2.44140625 4.4765625 C-2.44140625 5.1365625 -2.44140625 5.7965625 -2.44140625 6.4765625 C-1.45140625 6.1465625 -0.46140625 5.8165625 0.55859375 5.4765625 C0.22859375 4.8165625 -0.10140625 4.1565625 -0.44140625 3.4765625 Z M4.55859375 5.4765625 C4.55859375 8.4765625 4.55859375 8.4765625 4.55859375 8.4765625 Z M9.55859375 7.4765625 C9.22859375 8.1365625 8.89859375 8.7965625 8.55859375 9.4765625 C9.54859375 9.4765625 10.53859375 9.4765625 11.55859375 9.4765625 C11.55859375 8.8165625 11.55859375 8.1565625 11.55859375 7.4765625 C10.89859375 7.4765625 10.23859375 7.4765625 9.55859375 7.4765625 Z M-9.44140625 12.4765625 C-10.43140625 12.9715625 -10.43140625 12.9715625 -11.44140625 13.4765625 C-11.44140625 14.1365625 -11.44140625 14.7965625 -11.44140625 15.4765625 C-10.45140625 15.1465625 -9.46140625 14.8165625 -8.44140625 14.4765625 C-8.77140625 13.8165625 -9.10140625 13.1565625 -9.44140625 12.4765625 Z M-4.44140625 14.4765625 C-4.44140625 17.4765625 -4.44140625 17.4765625 -4.44140625 17.4765625 Z M0.55859375 16.4765625 C0.22859375 17.1365625 -0.10140625 17.7965625 -0.44140625 18.4765625 C0.54859375 18.4765625 1.53859375 18.4765625 2.55859375 18.4765625 C2.55859375 17.8165625 2.55859375 17.1565625 2.55859375 16.4765625 C1.89859375 16.4765625 1.23859375 16.4765625 0.55859375 16.4765625 Z " fill="#000000" transform="translate(44.44140625,42.5234375)"/>
<path d="M0 0 C8.415 3.96 8.415 3.96 17 8 C17 15.26 17 22.52 17 30 C10.72185017 27.90728339 5.75227388 25.22688535 0 22 C0 14.74 0 7.48 0 0 Z M2 5 C2.33 5.99 2.66 6.98 3 8 C3.33 7.01 3.66 6.02 4 5 C3.34 5 2.68 5 2 5 Z M7 13 C7.33 13.99 7.66 14.98 8 16 C8.33 15.01 8.66 14.02 9 13 C8.34 13 7.68 13 7 13 Z M12 22 C12.33 22.99 12.66 23.98 13 25 C13 24.01 13 23.02 13 22 C12.67 22 12.34 22 12 22 Z " fill="#000000" transform="translate(3,9)"/>
<path d="M0 0 C2.71434566 0.69208452 5.41314945 1.4133286 8.10546875 2.1875 C10.33972745 2.81466034 12.60377728 3.33627588 14.875 3.8125 C20.13004833 7.49103383 21.63271292 13.89705716 23 20 C22.546875 22.20922852 22.546875 22.20922852 22 24 C7.03633102 20.68390577 7.03633102 20.68390577 3.70410156 16.29199219 C1.20902656 11.21687059 0 5.6433607 0 0 Z M11 10 C11.33 10.99 11.66 11.98 12 13 C12 12.01 12 11.02 12 10 C11.67 10 11.34 10 11 10 Z " fill="#000000" transform="translate(38,24)"/>
</svg>
