<?xml version="1.0" encoding="UTF-8"?>
<svg version="1.1" xmlns="http://www.w3.org/2000/svg" width="64" height="64">
<path d="M0 0 C1.43158447 -0.00945648 1.43158447 -0.00945648 2.89208984 -0.019104 C3.92543457 -0.01505554 4.9587793 -0.01100708 6.0234375 -0.00683594 C7.08127441 -0.00874939 8.13911133 -0.01066284 9.22900391 -0.01263428 C11.46842689 -0.01399696 13.70785776 -0.01029476 15.94726562 -0.00195312 C19.38429427 0.00874504 22.8208002 -0.00184581 26.2578125 -0.01464844 C28.42968866 -0.01332686 30.60156449 -0.0107645 32.7734375 -0.00683594 C33.80678223 -0.0108844 34.84012695 -0.01493286 35.90478516 -0.019104 C36.8591748 -0.01279968 37.81356445 -0.00649536 38.796875 0 C39.63911621 0.00159119 40.48135742 0.00318237 41.34912109 0.00482178 C43.3984375 0.25878906 43.3984375 0.25878906 45.3984375 2.25878906 C45.65240479 4.76367187 45.65240479 4.76367187 45.65722656 7.96191406 C45.66353088 9.15655273 45.66983521 10.35119141 45.67633057 11.58203125 C45.6722821 12.87786133 45.66823364 14.17369141 45.6640625 15.50878906 C45.66540928 16.84635489 45.66734993 18.18392023 45.66986084 19.52148438 C45.6728115 22.32589373 45.66851644 25.13017575 45.65917969 27.93457031 C45.64778504 31.53283828 45.65434484 35.13080792 45.66632462 38.72906494 C45.67354486 41.49139665 45.67125456 44.25365739 45.66606903 47.01599121 C45.66408225 48.9891784 45.67016592 50.96236832 45.67633057 52.93554688 C45.67002625 54.13018555 45.66372192 55.32482422 45.65722656 56.55566406 C45.65563538 57.61108398 45.65404419 58.66650391 45.65240479 59.75390625 C45.3984375 62.25878906 45.3984375 62.25878906 43.3984375 64.25878906 C40.60158953 64.43403961 37.9051567 64.49022095 35.109375 64.45410156 C33.88173935 64.44985672 33.88173935 64.44985672 32.62930298 64.44552612 C30.01053357 64.43431438 27.39210386 64.40920835 24.7734375 64.38378906 C23.00000493 64.37376053 21.22656701 64.36463446 19.453125 64.35644531 C15.10143124 64.33437184 10.749992 64.29983551 6.3984375 64.25878906 C6.3984375 63.59878906 6.3984375 62.93878906 6.3984375 62.25878906 C18.2784375 61.92878906 30.1584375 61.59878906 42.3984375 61.25878906 C42.3984375 58.28878906 42.3984375 55.31878906 42.3984375 52.25878906 C27.2184375 52.25878906 12.0384375 52.25878906 -3.6015625 52.25878906 C-3.6015625 55.22878906 -3.6015625 58.19878906 -3.6015625 61.25878906 C-0.9615625 61.58878906 1.6784375 61.91878906 4.3984375 62.25878906 C4.3984375 62.91878906 4.3984375 63.57878906 4.3984375 64.25878906 C2.94050866 64.31278643 1.48201038 64.35158083 0.0234375 64.38378906 C-0.78867188 64.40699219 -1.60078125 64.43019531 -2.4375 64.45410156 C-4.6015625 64.25878906 -4.6015625 64.25878906 -6.6015625 62.25878906 C-6.84207153 60.0821228 -6.84207153 60.0821228 -6.82861328 57.35009766 C-6.82846222 56.32919037 -6.82831116 55.30828308 -6.82815552 54.25643921 C-6.81783295 53.15119904 -6.80751038 52.04595886 -6.796875 50.90722656 C-6.7940451 49.77805817 -6.79121521 48.64888977 -6.78829956 47.48550415 C-6.77707712 43.86815936 -6.75196872 40.25105941 -6.7265625 36.63378906 C-6.71653537 34.18587596 -6.70740906 31.737959 -6.69921875 29.29003906 C-6.67713107 23.27953842 -6.64363324 17.26918123 -6.6015625 11.25878906 C-5.6115625 11.25878906 -4.6215625 11.25878906 -3.6015625 11.25878906 C-3.6015625 23.79878906 -3.6015625 36.33878906 -3.6015625 49.25878906 C1.6784375 49.25878906 6.9584375 49.25878906 12.3984375 49.25878906 C12.7284375 47.93878906 13.0584375 46.61878906 13.3984375 45.25878906 C17.3584375 45.25878906 21.3184375 45.25878906 25.3984375 45.25878906 C25.8934375 47.23878906 25.8934375 47.23878906 26.3984375 49.25878906 C31.6784375 49.25878906 36.9584375 49.25878906 42.3984375 49.25878906 C42.3984375 34.07878906 42.3984375 18.89878906 42.3984375 3.25878906 C39.9234375 2.76378906 39.9234375 2.76378906 37.3984375 2.25878906 C37.3984375 3.57878906 37.3984375 4.89878906 37.3984375 6.25878906 C36.7384375 6.25878906 36.0784375 6.25878906 35.3984375 6.25878906 C35.88521973 6.94577881 36.37200195 7.63276855 36.87353516 8.34057617 C38.68254222 11.80248163 38.78555978 14.06018493 38.796875 17.95019531 C38.80267578 19.86155273 38.80267578 19.86155273 38.80859375 21.81152344 C38.80230957 22.46983154 38.79602539 23.12813965 38.78955078 23.80639648 C38.77345414 25.81920888 38.78944106 27.83002211 38.80859375 29.84277344 C38.80472656 31.11572266 38.80085938 32.38867188 38.796875 33.70019531 C38.79349121 34.86236572 38.79010742 36.02453613 38.78662109 37.22192383 C38.3501786 40.63633149 38.03682081 42.03614694 35.3984375 44.25878906 C32.16796875 44.76049805 32.16796875 44.76049805 28.2109375 44.75488281 C27.51202393 44.75633804 26.81311035 44.75779327 26.09301758 44.7592926 C24.61698229 44.75763439 23.14092957 44.74608143 21.66503906 44.7253418 C19.40615377 44.69638797 17.14961595 44.70473133 14.890625 44.71777344 C13.45571776 44.71153567 12.02081794 44.70314442 10.5859375 44.69238281 C9.28011719 44.68263428 7.97429688 44.67288574 6.62890625 44.6628418 C3.3984375 44.25878906 3.3984375 44.25878906 1.47412109 43.14916992 C-0.15396609 40.28800809 0.00915844 37.85215531 0 34.57910156 C-0.00287018 33.92932343 -0.00574036 33.27954529 -0.00869751 32.6100769 C-0.01073671 31.23662443 -0.00521675 29.86314282 0.00732422 28.48974609 C0.02333054 26.39776806 0.00750027 24.30773697 -0.01171875 22.21582031 C-0.00973527 20.87857649 -0.00588943 19.54133388 0 18.20410156 C0.00338379 16.99254395 0.00676758 15.78098633 0.01025391 14.53271484 C0.42652767 11.02187763 1.36275397 9.10982416 3.3984375 6.25878906 C2.7384375 6.25878906 2.0784375 6.25878906 1.3984375 6.25878906 C1.3984375 4.93878906 1.3984375 3.61878906 1.3984375 2.25878906 C-0.2515625 2.58878906 -1.9015625 2.91878906 -3.6015625 3.25878906 C-3.6015625 5.23878906 -3.6015625 7.21878906 -3.6015625 9.25878906 C-4.5915625 9.25878906 -5.5815625 9.25878906 -6.6015625 9.25878906 C-6.7265625 5.88378906 -6.7265625 5.88378906 -6.6015625 2.25878906 C-4.12591215 -0.21686129 -3.40850517 0.00643945 0 0 Z M7.3984375 2.25878906 C7.3984375 3.57878906 7.3984375 4.89878906 7.3984375 6.25878906 C6.4084375 6.75378906 6.4084375 6.75378906 5.3984375 7.25878906 C7.3784375 7.25878906 9.3584375 7.25878906 11.3984375 7.25878906 C10.0784375 5.60878906 8.7584375 3.95878906 7.3984375 2.25878906 Z M11.3984375 2.25878906 C12.3984375 4.25878906 12.3984375 4.25878906 12.3984375 4.25878906 Z M15.3984375 2.25878906 C15.0684375 3.24878906 14.7384375 4.23878906 14.3984375 5.25878906 C13.7384375 5.91878906 13.0784375 6.57878906 12.3984375 7.25878906 C14.3784375 7.25878906 16.3584375 7.25878906 18.3984375 7.25878906 C17.7384375 6.92878906 17.0784375 6.59878906 16.3984375 6.25878906 C15.7734375 4.19628906 15.7734375 4.19628906 15.3984375 2.25878906 Z M22.3984375 2.25878906 C22.3984375 3.57878906 22.3984375 4.89878906 22.3984375 6.25878906 C21.4084375 6.75378906 21.4084375 6.75378906 20.3984375 7.25878906 C22.3784375 7.25878906 24.3584375 7.25878906 26.3984375 7.25878906 C25.0784375 5.60878906 23.7584375 3.95878906 22.3984375 2.25878906 Z M26.3984375 2.25878906 C27.3984375 4.25878906 27.3984375 4.25878906 27.3984375 4.25878906 Z M30.3984375 2.25878906 C30.0684375 3.24878906 29.7384375 4.23878906 29.3984375 5.25878906 C28.7384375 5.91878906 28.0784375 6.57878906 27.3984375 7.25878906 C27.7284375 8.24878906 28.0584375 9.23878906 28.3984375 10.25878906 C27.67664307 10.25355225 26.95484863 10.24831543 26.21118164 10.24291992 C22.96110901 10.22221548 19.71105022 10.20914988 16.4609375 10.19628906 C15.32462891 10.18791016 14.18832031 10.17953125 13.01757812 10.17089844 C11.93798828 10.16767578 10.85839844 10.16445312 9.74609375 10.16113281 C8.74586182 10.155896 7.74562988 10.15065918 6.71508789 10.14526367 C4.43636522 9.99697811 4.43636522 9.99697811 3.3984375 11.25878906 C3.29840461 13.3923208 3.26762702 15.52916448 3.265625 17.66503906 C3.26433594 18.96570313 3.26304688 20.26636719 3.26171875 21.60644531 C3.26381348 22.28723145 3.2659082 22.96801758 3.26806641 23.66943359 C3.2734151 25.75007421 3.2681207 27.83049895 3.26171875 29.91113281 C3.26300781 31.21179688 3.26429687 32.51246094 3.265625 33.85253906 C3.26675293 35.05587891 3.26788086 36.25921875 3.26904297 37.49902344 C3.08387773 40.16863389 3.08387773 40.16863389 4.3984375 41.25878906 C6.60494406 41.35891308 8.81466136 41.38960086 11.0234375 41.39160156 C11.68553223 41.39255829 12.34762695 41.39351501 13.02978516 41.39450073 C14.43196711 41.39518233 15.8341522 41.39332948 17.23632812 41.38916016 C19.38939463 41.38381153 21.54225252 41.38910576 23.6953125 41.39550781 C25.05468796 41.39484703 26.4140633 41.39356586 27.7734375 41.39160156 C29.01867187 41.39047363 30.26390625 41.3893457 31.546875 41.38818359 C34.29749181 41.58451033 34.29749181 41.58451033 35.3984375 40.25878906 C35.48619355 38.1132008 35.50538969 35.96474485 35.49609375 33.81738281 C35.49287109 32.51220703 35.48964844 31.20703125 35.48632812 29.86230469 C35.47797151 28.47363216 35.46950655 27.08496029 35.4609375 25.69628906 C35.45592416 24.3037125 35.45136097 22.91113425 35.44726562 21.51855469 C35.43543184 18.09859036 35.4189463 14.67871062 35.3984375 11.25878906 C32.9234375 10.76378906 32.9234375 10.76378906 30.3984375 10.25878906 C30.3984375 9.26878906 30.3984375 8.27878906 30.3984375 7.25878906 C31.3884375 6.92878906 32.3784375 6.59878906 33.3984375 6.25878906 C32.7384375 6.25878906 32.0784375 6.25878906 31.3984375 6.25878906 C31.0684375 4.93878906 30.7384375 3.61878906 30.3984375 2.25878906 Z M15.3984375 48.25878906 C15.3984375 48.58878906 15.3984375 48.91878906 15.3984375 49.25878906 C18.0384375 49.25878906 20.6784375 49.25878906 23.3984375 49.25878906 C23.3984375 48.92878906 23.3984375 48.59878906 23.3984375 48.25878906 C20.7584375 48.25878906 18.1184375 48.25878906 15.3984375 48.25878906 Z " fill="#000000" transform="translate(12.6015625,-0.2587890625)"/>
<path d="M0 0 C2.6875 0.875 2.6875 0.875 5 2 C4.125 6.875 4.125 6.875 3 8 C0.5 8.125 0.5 8.125 -2 8 C-3 7 -3 7 -3.25 4.5625 C-3.1675 3.716875 -3.085 2.87125 -3 2 C-2.01 1.34 -1.02 0.68 0 0 Z " fill="#000000" transform="translate(39,25)"/>
<path d="M0 0 C2.625 0.9375 2.625 0.9375 5 2 C5.042721 3.66611905 5.04063832 5.33382885 5 7 C4 8 4 8 1.5625 8.1875 C-1 8 -1 8 -3 6 C-2.75 3.4375 -2.75 3.4375 -2 1 C-1.34 0.67 -0.68 0.34 0 0 Z " fill="#000000" transform="translate(23,25)"/>
<path d="M0 0 C5.28 0 10.56 0 16 0 C16 0.99 16 1.98 16 3 C10.72 3 5.44 3 0 3 C0 2.01 0 1.02 0 0 Z " fill="#000000" transform="translate(24,36)"/>
<path d="M0 0 C2.625 0.9375 2.625 0.9375 5 2 C4.67 3.65 4.34 5.3 4 7 C1.625 7.625 1.625 7.625 -1 8 C-1.66 7.34 -2.32 6.68 -3 6 C-2.75 3.4375 -2.75 3.4375 -2 1 C-1.34 0.67 -0.68 0.34 0 0 Z " fill="#000000" transform="translate(31,18)"/>
<path d="M0 0 C1.67542976 0.28604898 3.34385343 0.61781233 5 1 C5 2.65 5 4.3 5 6 C3.34385343 6.38218767 1.67542976 6.71395102 0 7 C-1 6 -1 6 -1.125 3.5 C-1 1 -1 1 0 0 Z " fill="#000000" transform="translate(30,53)"/>
<path d="M0 0 C1.67542976 0.28604898 3.34385343 0.61781233 5 1 C5 2.65 5 4.3 5 6 C1.25 7.125 1.25 7.125 -1 6 C-1.042721 4.33388095 -1.04063832 2.66617115 -1 1 C-0.67 0.67 -0.34 0.34 0 0 Z " fill="#000000" transform="translate(22,53)"/>
<path d="M0 0 C0.639375 0.2475 1.27875 0.495 1.9375 0.75 C2.2675 1.74 2.5975 2.73 2.9375 3.75 C1.9475 5.235 1.9475 5.235 0.9375 6.75 C-0.3825 6.42 -1.7025 6.09 -3.0625 5.75 C-3.3925 4.1 -3.7225 2.45 -4.0625 0.75 C-2.0625 -0.25 -2.0625 -0.25 0 0 Z " fill="#000000" transform="translate(48.0625,53.25)"/>
<path d="M0 0 C2.125 0.375 2.125 0.375 4 1 C4.625 2.875 4.625 2.875 5 5 C4.34 5.66 3.68 6.32 3 7 C0.875 6.625 0.875 6.625 -1 6 C-1.625 4.125 -1.625 4.125 -2 2 C-1.34 1.34 -0.68 0.68 0 0 Z " fill="#000000" transform="translate(38,53)"/>
<path d="M0 0 C2.125 0.375 2.125 0.375 4 1 C4.625 2.875 4.625 2.875 5 5 C4.34 5.66 3.68 6.32 3 7 C0.875 6.625 0.875 6.625 -1 6 C-1.625 4.125 -1.625 4.125 -2 2 C-1.34 1.34 -0.68 0.68 0 0 Z " fill="#000000" transform="translate(15,53)"/>
<path d="M0 0 C1.98 0 3.96 0 6 0 C6.33 0.99 6.66 1.98 7 3 C4.36 3 1.72 3 -1 3 C-0.67 2.01 -0.34 1.02 0 0 Z " fill="#000000" transform="translate(38,15)"/>
<path d="M0 0 C1.98 0 3.96 0 6 0 C6.33 0.99 6.66 1.98 7 3 C4.36 3 1.72 3 -1 3 C-0.67 2.01 -0.34 1.02 0 0 Z " fill="#000000" transform="translate(20,15)"/>
<path d="M0 0 C2.64 0 5.28 0 8 0 C8 0.66 8 1.32 8 2 C5.36 2 2.72 2 0 2 C0 1.34 0 0.68 0 0 Z " fill="#000000" transform="translate(37,12)"/>
<path d="M0 0 C2.64 0 5.28 0 8 0 C8 0.66 8 1.32 8 2 C5.36 2 2.72 2 0 2 C0 1.34 0 0.68 0 0 Z " fill="#000000" transform="translate(19,12)"/>
</svg>
