<?xml version="1.0" encoding="UTF-8"?>
<svg version="1.1" xmlns="http://www.w3.org/2000/svg" width="64" height="64">
<path d="M0 0 C3.08984375 0.6484375 3.08984375 0.6484375 5.4609375 3.421875 C6.17246007 4.60907095 6.86071894 5.81046184 7.52734375 7.0234375 C7.89021484 7.62671875 8.25308594 8.23 8.62695312 8.8515625 C9.53003328 10.40562013 10.31959363 12.02444131 11.08984375 13.6484375 C10.75984375 14.3084375 10.42984375 14.9684375 10.08984375 15.6484375 C6.61597943 16.80639227 3.81215071 16.81673599 0.15234375 16.8359375 C-1.07355469 16.85011719 -2.29945312 16.86429688 -3.5625 16.87890625 C-6.66659437 16.66520547 -8.32378176 16.28841932 -10.91015625 14.6484375 C-10.14447759 13.06260502 -9.3723766 11.47987256 -8.59765625 9.8984375 C-8.16839844 9.01671875 -7.73914063 8.135 -7.296875 7.2265625 C-3.87417871 0.86323982 -3.87417871 0.86323982 0 0 Z " fill="#000000" transform="translate(31.91015625,43.3515625)"/>
<path d="M0 0 C5.28 0 10.56 0 16 0 C14.87128713 7.9009901 14.87128713 7.9009901 12.625 11.25 C12.20476563 11.89453125 11.78453125 12.5390625 11.3515625 13.203125 C9.99635362 15.00484779 8.73609654 16.55770441 7 18 C6.01 18 5.02 18 4 18 C2.10546875 15.515625 2.10546875 15.515625 0.1875 12.25 C-0.45832031 11.18265625 -1.10414062 10.1153125 -1.76953125 9.015625 C-3 6 -3 6 -2.26171875 3.734375 C-1.84535156 3.16203125 -1.42898437 2.5896875 -1 2 C-0.67 1.34 -0.34 0.68 0 0 Z " fill="#000000" transform="translate(40,38)"/>
<path d="M0 0 C2.60527105 -0.10792837 5.20608311 -0.18724878 7.8125 -0.25 C8.55048828 -0.28351562 9.28847656 -0.31703125 10.04882812 -0.3515625 C15.51025897 -0.45041193 15.51025897 -0.45041193 18.04296875 1.87890625 C19 4 19 4 18.5 6.1875 C16.38418976 10.15464421 14.22889281 14.09518397 12 18 C8.17915765 17.3023515 6.57732267 15.83847602 4.171875 12.75 C1.42075154 8.64165563 0 5.02409454 0 0 Z " fill="#000000" transform="translate(8,38)"/>
<path d="M0 0 C4.36077009 0.72679501 5.97433177 2.76950481 8.671875 6.09375 C11.39932297 10.00844003 12 13.29434919 12 18 C6.72 18 1.44 18 -4 18 C-4.99 16.02 -5.98 14.04 -7 12 C-5.76171875 8.7890625 -5.76171875 8.7890625 -3.6875 5.625 C-3.01074219 4.56539062 -2.33398438 3.50578125 -1.63671875 2.4140625 C-1.09660156 1.61742188 -0.55648437 0.82078125 0 0 Z " fill="#000000" transform="translate(44,17)"/>
<path d="M0 0 C1.9296875 2.4140625 1.9296875 2.4140625 3.875 5.625 C4.53242188 6.66914063 5.18984375 7.71328125 5.8671875 8.7890625 C6.42792969 10.37847656 6.42792969 10.37847656 7 12 C6.01 13.98 5.02 15.96 4 18 C-1.28 18 -6.56 18 -12 18 C-10.87128713 10.0990099 -10.87128713 10.0990099 -8.625 6.75 C-8.20476563 6.10546875 -7.78453125 5.4609375 -7.3515625 4.796875 C-3.74347826 0 -3.74347826 0 0 0 Z " fill="#000000" transform="translate(20,17)"/>
<path d="M0 0 C0.598125 0.350625 1.19625 0.70125 1.8125 1.0625 C1.8125 1.7225 1.8125 2.3825 1.8125 3.0625 C3.7925 3.0625 5.7725 3.0625 7.8125 3.0625 C8.4725 1.7425 9.1325 0.4225 9.8125 -0.9375 C11.7925 -0.2775 13.7725 0.3825 15.8125 1.0625 C14.88165029 2.83683812 13.94255387 4.60685149 13 6.375 C12.47792969 7.36113281 11.95585938 8.34726562 11.41796875 9.36328125 C8.91555529 13.57050194 8.91555529 13.57050194 6.8125 15.0625 C4.3984375 15.6484375 4.3984375 15.6484375 1.8125 15.0625 C0.05458006 12.91795849 -1.22145546 11.06823075 -2.5625 8.6875 C-3.11357422 7.78257813 -3.11357422 7.78257813 -3.67578125 6.859375 C-4.59165329 5.30412059 -5.39874225 3.68592203 -6.1875 2.0625 C-4.66896708 -0.97456585 -3.05066334 -1.30742714 0 0 Z " fill="#000000" transform="translate(27.1875,13.9375)"/>
<path d="M0 0 C3.0625 0.375 3.0625 0.375 5 2.0625 C6.34483625 4.98949654 6.09365662 6.36084989 5.0625 9.375 C3.0625 11.375 3.0625 11.375 0.125 11.75 C-2.9375 11.375 -2.9375 11.375 -4.875 9.6875 C-6.21983625 6.76050346 -5.96865662 5.38915011 -4.9375 2.375 C-2.9375 0.375 -2.9375 0.375 0 0 Z " fill="#000000" transform="translate(31.9375,30.625)"/>
<path d="M0 0 C3.96 0 7.92 0 12 0 C11.02745 4.86275001 9.82739031 7.07813602 7 11 C3.8255824 9.90537324 3.01085843 9.01822665 1.25 6.0625 C0 3 0 3 0 0 Z " fill="#000000" transform="translate(26,4)"/>
</svg>
