<?xml version="1.0" encoding="UTF-8"?>
<svg version="1.1" xmlns="http://www.w3.org/2000/svg" width="64" height="64">
<path d="M0 0 C4.50789276 3.86390808 8.79767029 7.66073352 12.9375 11.875 C13.67709961 12.62136719 13.67709961 12.62136719 14.43164062 13.3828125 C15.62345992 14.58620285 16.81208678 15.79275365 18 17 C17.360625 17.7425 16.72125 18.485 16.0625 19.25 C13.92606303 21.71345545 13.92606303 21.71345545 13.5390625 23.98339844 C12.90391885 26.35943402 12.05525328 27.30603435 10.3125 29.015625 C9.77882813 29.54414062 9.24515625 30.07265625 8.6953125 30.6171875 C8.13585938 31.15601562 7.57640625 31.69484375 7 32.25 C6.16082031 33.08144531 6.16082031 33.08144531 5.3046875 33.9296875 C1.1541718 38 1.1541718 38 0 38 C0 25.46 0 12.92 0 0 Z M4 15 C4.33 17.64 4.66 20.28 5 23 C5.66 23 6.32 23 7 23 C7 20.36 7 17.72 7 15 C6.01 15 5.02 15 4 15 Z " fill="#000000" transform="translate(4,21)"/>
<path d="M0 0 C4.12444855 3.42241475 8.086568 6.95843293 11.9375 10.6875 C13.09572266 11.80705078 13.09572266 11.80705078 14.27734375 12.94921875 C16 15 16 15 16 18 C4.12 18 -7.76 18 -20 18 C-12.93714286 9.76 -12.93714286 9.76 -10.375 7.125 C-9.82585938 6.55007812 -9.27671875 5.97515625 -8.7109375 5.3828125 C-6.78536146 3.82652502 -5.3694193 3.5900135 -3 3 C-1.26973898 1.52109931 -1.26973898 1.52109931 0 0 Z M-1 5 C-2.24546405 7.49092811 -1.7767578 8.41080733 -1 11 C-2.32 10.67 -3.64 10.34 -5 10 C-5.33 10.99 -5.66 11.98 -6 13 C-4.35 13 -2.7 13 -1 13 C-1 13.66 -1 14.32 -1 15 C-0.34 15 0.32 15 1 15 C2.2380014 11.42355152 1.74926071 8.66305234 1 5 C0.34 5 -0.32 5 -1 5 Z " fill="#000000" transform="translate(25,42)"/>
<path d="M0 0 C5.28 0 10.56 0 16 0 C16.78539109 6.18495487 17 11.64793666 17 18 C11.06 18 5.12 18 -1 18 C-1 11.64793666 -0.78539109 6.18495487 0 0 Z " fill="#000000" transform="translate(43,42)"/>
<path d="M0 0 C11.55 0 23.1 0 35 0 C31.13609192 4.50789276 27.33926648 8.79767029 23.125 12.9375 C22.37863281 13.67709961 22.37863281 13.67709961 21.6171875 14.43164062 C20.41379715 15.62345992 19.20724635 16.81208678 18 18 C13.46334263 14.2698595 9.22058878 10.32946434 5.0625 6.1875 C4.31746216 5.44922974 4.31746216 5.44922974 3.55737305 4.69604492 C0 1.12375366 0 1.12375366 0 0 Z M16 2 C16 2.66 16 3.32 16 4 C16.99 4 17.98 4 19 4 C18.67 4.99 18.34 5.98 18 7 C18.66 7 19.32 7 20 7 C20 5.68 20 4.36 20 3 C18.68 2.67 17.36 2.34 16 2 Z M16 7 C15.67 8.32 15.34 9.64 15 11 C17.475 11.495 17.475 11.495 20 12 C20 11.34 20 10.68 20 10 C19.01 10 18.02 10 17 10 C17.33 9.01 17.66 8.02 18 7 C17.34 7 16.68 7 16 7 Z " fill="#000000" transform="translate(5,20)"/>
<path d="M0 0 C0.02686553 1.97909398 0.04633375 3.95828971 0.0625 5.9375 C0.07410156 7.03964844 0.08570312 8.14179687 0.09765625 9.27734375 C0 12 0 12 -1 13 C-1.21168488 15.24621176 -1.36915709 17.49763282 -1.5 19.75 C-1.74478645 23.92885432 -2.06472373 27.91596027 -3 32 C-8.29012124 27.59156563 -13.18808428 22.92440206 -18 18 C-14.2698595 13.46334263 -10.32946434 9.22058878 -6.1875 5.0625 C-5.69531982 4.56580811 -5.20313965 4.06911621 -4.69604492 3.55737305 C-1.12375366 0 -1.12375366 0 0 0 Z M-9 13 C-9 13.66 -9 14.32 -9 15 C-8.01 15 -7.02 15 -6 15 C-6 15.66 -6 16.32 -6 17 C-6.66 17 -7.32 17 -8 17 C-8 17.66 -8 18.32 -8 19 C-7.34 19 -6.68 19 -6 19 C-6 19.66 -6 20.32 -6 21 C-6.99 21 -7.98 21 -9 21 C-9 21.66 -9 22.32 -9 23 C-7.68 22.67 -6.36 22.34 -5 22 C-5 19.36 -5 16.72 -5 14 C-6.32 13.67 -7.64 13.34 -9 13 Z " fill="#000000" transform="translate(44,24)"/>
<path d="M0 0 C0.99 0.33 1.98 0.66 3 1 C1.58098338 4.22745524 -0.12855765 6.37258107 -2.62353516 8.85058594 C-3.7344603 9.96128448 -3.7344603 9.96128448 -4.86782837 11.09442139 C-5.66683563 11.88310608 -6.4658429 12.67179077 -7.2890625 13.484375 C-8.10748627 14.29996887 -8.92591003 15.11556274 -9.76913452 15.95587158 C-12.38309973 18.55864562 -15.00393505 21.15437762 -17.625 23.75 C-19.39889454 25.5138634 -21.17233766 27.2781809 -22.9453125 29.04296875 C-27.29165142 33.36726136 -31.64365081 37.6857933 -36 42 C-36.99 41.67 -37.98 41.34 -39 41 C-37.58098338 37.77254476 -35.87144235 35.62741893 -33.37646484 33.14941406 C-32.63584808 32.40894836 -31.89523132 31.66848267 -31.13217163 30.90557861 C-30.33316437 30.11689392 -29.5341571 29.32820923 -28.7109375 28.515625 C-27.89251373 27.70003113 -27.07408997 26.88443726 -26.23086548 26.04412842 C-23.61690027 23.44135438 -20.99606495 20.84562238 -18.375 18.25 C-16.60110546 16.4861366 -14.82766234 14.7218191 -13.0546875 12.95703125 C-8.70834858 8.63273864 -4.35634919 4.3142067 0 0 Z " fill="#000000" transform="translate(57,4)"/>
<path d="M0 0 C4.62 0 9.24 0 14 0 C14 0.66 14 1.32 14 2 C9.38 2 4.76 2 0 2 C0 1.34 0 0.68 0 0 Z " fill="#000000" transform="translate(44,38)"/>
<path d="M0 0 C1.32 0 2.64 0 4 0 C4 1.32 4 2.64 4 4 C2.68 4 1.36 4 0 4 C0 2.68 0 1.36 0 0 Z " fill="#000000" transform="translate(36,12)"/>
<path d="M0 0 C1.32 0 2.64 0 4 0 C4 1.32 4 2.64 4 4 C2.68 4 1.36 4 0 4 C0 2.68 0 1.36 0 0 Z " fill="#000000" transform="translate(28,12)"/>
<path d="M0 0 C1.32 0 2.64 0 4 0 C4 1.32 4 2.64 4 4 C2.68 4 1.36 4 0 4 C0 2.68 0 1.36 0 0 Z " fill="#000000" transform="translate(20,12)"/>
<path d="M0 0 C1.32 0 2.64 0 4 0 C4 1.32 4 2.64 4 4 C2.68 4 1.36 4 0 4 C0 2.68 0 1.36 0 0 Z " fill="#000000" transform="translate(12,12)"/>
<path d="M0 0 C1.32 0 2.64 0 4 0 C4 1.32 4 2.64 4 4 C2.68 4 1.36 4 0 4 C0 2.68 0 1.36 0 0 Z " fill="#000000" transform="translate(4,12)"/>
<path d="M0 0 C1.32 0 2.64 0 4 0 C4 1.32 4 2.64 4 4 C2.68 4 1.36 4 0 4 C0 2.68 0 1.36 0 0 Z " fill="#000000" transform="translate(36,4)"/>
<path d="M0 0 C1.32 0 2.64 0 4 0 C4 1.32 4 2.64 4 4 C2.68 4 1.36 4 0 4 C0 2.68 0 1.36 0 0 Z " fill="#000000" transform="translate(28,4)"/>
<path d="M0 0 C1.32 0 2.64 0 4 0 C4 1.32 4 2.64 4 4 C2.68 4 1.36 4 0 4 C0 2.68 0 1.36 0 0 Z " fill="#000000" transform="translate(20,4)"/>
<path d="M0 0 C1.32 0 2.64 0 4 0 C4 1.32 4 2.64 4 4 C2.68 4 1.36 4 0 4 C0 2.68 0 1.36 0 0 Z " fill="#000000" transform="translate(12,4)"/>
<path d="M0 0 C1.32 0 2.64 0 4 0 C4 1.32 4 2.64 4 4 C2.68 4 1.36 4 0 4 C0 2.68 0 1.36 0 0 Z " fill="#000000" transform="translate(4,4)"/>
</svg>
