<?xml version="1.0" encoding="UTF-8"?>
<svg version="1.1" xmlns="http://www.w3.org/2000/svg" width="64" height="64">
<path d="M0 0 C7.00210182 4.17296977 12.01482585 10.19360552 14.4375 18 C16.09944684 26.3795639 15.57763211 33.7851747 11.125 41.1875 C8.78609482 44.66105264 6.19353977 47.85024027 3.4375 51 C3.9325 51.78375 4.4275 52.5675 4.9375 53.375 C6.4375 56 6.4375 56 6.4375 58 C10.3975 58 14.3575 58 18.4375 58 C18.4375 59.32 18.4375 60.64 18.4375 62 C-2.6825 62 -23.8025 62 -45.5625 62 C-45.5625 60.68 -45.5625 59.36 -45.5625 58 C-41.6025 58 -37.6425 58 -33.5625 58 C-32.50477889 55.35569723 -31.46311707 52.70185122 -30.5625 50 C-31.02140625 49.59910156 -31.4803125 49.19820312 -31.953125 48.78515625 C-39.0251975 42.23308908 -42.11708947 35.41659842 -42.65625 25.765625 C-42.38094742 17.64419887 -39.28275762 10.74486088 -33.5625 5 C-24.0411645 -2.47058631 -11.42644525 -5.25475414 0 0 Z M-17.375 7.125 C-18.88420103 9.08282518 -18.88420103 9.08282518 -18.25 12.1875 C-18.023125 13.115625 -17.79625 14.04375 -17.5625 15 C-13.46707219 16.14203952 -13.46707219 16.14203952 -9.625 14.875 C-8.3251678 12.98566322 -8.3251678 12.98566322 -8.75 10.4375 C-9.40877033 7.85558728 -9.40877033 7.85558728 -11.5625 6 C-15.35161589 5.64842476 -15.35161589 5.64842476 -17.375 7.125 Z M-24.5625 12 C-25.366875 12.928125 -26.17125 13.85625 -27 14.8125 C-27.67869141 15.59560547 -27.67869141 15.59560547 -28.37109375 16.39453125 C-29.77121231 18.10712971 -29.77121231 18.10712971 -30.5625 21 C-29.5725 21 -28.5825 21 -27.5625 21 C-26.0930191 19.23267901 -26.0930191 19.23267901 -24.875 17 C-24.43800781 16.2575 -24.00101563 15.515 -23.55078125 14.75 C-23.22464844 14.1725 -22.89851563 13.595 -22.5625 13 C-23.2225 12.67 -23.8825 12.34 -24.5625 12 Z M-5.5625 14 C-6.56728037 15.8522367 -6.56728037 15.8522367 -6.5625 18 C-5.55283641 20.34626504 -5.55283641 20.34626504 -3.5625 22 C-1.0625 22.75 -1.0625 22.75 1.4375 22 C3.51726712 19.83928533 3.51726712 19.83928533 4.4375 17 C4.10416667 14.66666667 4.10416667 14.66666667 2.4375 13 C-1.36276409 11.63580263 -2.09787092 11.69024728 -5.5625 14 Z M-17.3125 22 C-18.90404131 24.11797519 -18.90404131 24.11797519 -18.35546875 27.60546875 C-18.27302833 32.74580289 -20.4317289 36.07449987 -23.125 40.3125 C-24.70517119 42.84682464 -26.15521347 45.35876704 -27.5625 48 C-27.2325 48.99 -26.9025 49.98 -26.5625 51 C-24.40511682 48.9861609 -22.90484338 47.09796497 -21.51953125 44.49609375 C-21.16826172 43.83802734 -20.81699219 43.17996094 -20.45507812 42.50195312 C-19.92043945 41.48004883 -19.92043945 41.48004883 -19.375 40.4375 C-19.00697266 39.75236328 -18.63894531 39.06722656 -18.25976562 38.36132812 C-16.25521191 34.87253065 -16.25521191 34.87253065 -15.5625 31 C-14.2425 31 -12.9225 31 -11.5625 31 C-11.19511719 32.25683594 -11.19511719 32.25683594 -10.8203125 33.5390625 C-9.401039 37.44426847 -7.54392234 40.80971271 -5.4375 44.375 C-4.87869141 45.33599609 -4.87869141 45.33599609 -4.30859375 46.31640625 C-3.39815998 47.88048477 -2.48101809 49.44065534 -1.5625 51 C-0.9025 50.67 -0.2425 50.34 0.4375 50 C-0.87493599 45.53241486 -2.6706986 42.0296672 -5.1875 38.125 C-8.35770405 32.87394185 -8.99877774 29.99881896 -8.5625 24 C-9.64924994 21.91015769 -9.64924994 21.91015769 -11.5625 21 C-15.31959864 20.66924071 -15.31959864 20.66924071 -17.3125 22 Z M-32.375 27.125 C-33.88420103 29.08282518 -33.88420103 29.08282518 -33.25 32.1875 C-33.023125 33.115625 -32.79625 34.04375 -32.5625 35 C-28.46707219 36.14203952 -28.46707219 36.14203952 -24.625 34.875 C-23.3251678 32.98566322 -23.3251678 32.98566322 -23.75 30.4375 C-24.40877033 27.85558728 -24.40877033 27.85558728 -26.5625 26 C-30.35161589 25.64842476 -30.35161589 25.64842476 -32.375 27.125 Z M-2.375 27.125 C-3.88420103 29.08282518 -3.88420103 29.08282518 -3.25 32.1875 C-3.023125 33.115625 -2.79625 34.04375 -2.5625 35 C1.53292781 36.14203952 1.53292781 36.14203952 5.375 34.875 C6.6748322 32.98566322 6.6748322 32.98566322 6.25 30.4375 C5.59122967 27.85558728 5.59122967 27.85558728 3.4375 26 C-0.35161589 25.64842476 -0.35161589 25.64842476 -2.375 27.125 Z M-25.5625 52 C-26.2225 53.98 -26.8825 55.96 -27.5625 58 C-18.3225 58 -9.0825 58 0.4375 58 C-0.2225 56.02 -0.8825 54.04 -1.5625 52 C-2.7175 52.33 -3.8725 52.66 -5.0625 53 C-12.38911764 54.80585646 -18.36562953 54.0562487 -25.5625 52 Z " fill="#000000" transform="translate(45.5625,2)"/>
<path d="M0 0 C1.98 0.495 1.98 0.495 4 1 C3.67 2.32 3.34 3.64 3 5 C1.68 4.67 0.36 4.34 -1 4 C-0.67 2.68 -0.34 1.36 0 0 Z " fill="#000000" transform="translate(43,17)"/>
<path d="M0 0 C1.32 0 2.64 0 4 0 C4 1.32 4 2.64 4 4 C2.68 4 1.36 4 0 4 C0 2.68 0 1.36 0 0 Z " fill="#000000" transform="translate(45,31)"/>
<path d="M0 0 C1.32 0 2.64 0 4 0 C4 1.32 4 2.64 4 4 C2.68 4 1.36 4 0 4 C0 2.68 0 1.36 0 0 Z " fill="#000000" transform="translate(15,31)"/>
<path d="M0 0 C1.32 0 2.64 0 4 0 C4 1.32 4 2.64 4 4 C2.68 4 1.36 4 0 4 C0 2.68 0 1.36 0 0 Z " fill="#000000" transform="translate(30,26)"/>
<path d="M0 0 C1.32 0 2.64 0 4 0 C4 1.32 4 2.64 4 4 C2.68 4 1.36 4 0 4 C0 2.68 0 1.36 0 0 Z " fill="#000000" transform="translate(30,11)"/>
</svg>
