<?xml version="1.0" encoding="UTF-8"?>
<svg version="1.1" xmlns="http://www.w3.org/2000/svg" width="64" height="64">
<path d="M0 0 C5.85024065 4.26647384 9.512057 9.40291134 11.12109375 16.546875 C11.47645044 21.72018174 11.40529695 26.86747595 11.30859375 32.046875 C11.29351988 33.45571486 11.27983625 34.86457032 11.26757812 36.2734375 C11.23239099 39.69831896 11.18315454 43.12239263 11.12109375 46.546875 C7.82109375 46.546875 4.52109375 46.546875 1.12109375 46.546875 C0.79109375 37.636875 0.46109375 28.726875 0.12109375 19.546875 C-3.66654168 17.65305728 -4.93721653 17.29157008 -8.94140625 17.28125 C-9.90304688 17.27867188 -10.8646875 17.27609375 -11.85546875 17.2734375 C-13.35207031 17.28503906 -13.35207031 17.28503906 -14.87890625 17.296875 C-15.87664063 17.28914063 -16.874375 17.28140625 -17.90234375 17.2734375 C-19.34480469 17.27730469 -19.34480469 17.27730469 -20.81640625 17.28125 C-21.69167969 17.28350586 -22.56695313 17.28576172 -23.46875 17.28808594 C-26.25865225 17.4457747 -26.25865225 17.4457747 -29.87890625 19.546875 C-30.20890625 28.456875 -30.53890625 37.366875 -30.87890625 46.546875 C-34.17890625 46.546875 -37.47890625 46.546875 -40.87890625 46.546875 C-40.95367843 42.42098425 -41.00779848 38.29536192 -41.04370117 34.16894531 C-41.05868539 32.76848469 -41.07908004 31.36807017 -41.10522461 29.96777344 C-41.30634846 18.90990507 -40.7961204 10.6782571 -32.875 2.3125 C-23.81497374 -5.70145669 -10.26734544 -6.00192935 0 0 Z " fill="#000000" transform="translate(46.87890625,3.453125)"/>
<path d="M0 0 C8.58 0 17.16 0 26 0 C27.29776917 2.59553834 27.12950035 4.50705527 27.1328125 7.41015625 C27.13474609 9.01793945 27.13474609 9.01793945 27.13671875 10.65820312 C27.13285156 11.78162109 27.12898438 12.90503906 27.125 14.0625 C27.13080078 15.75342773 27.13080078 15.75342773 27.13671875 17.47851562 C27.13542969 18.54908203 27.13414063 19.61964844 27.1328125 20.72265625 C27.13168457 21.71015869 27.13055664 22.69766113 27.12939453 23.71508789 C27 26 27 26 26 27 C24.08541718 27.09971786 22.16717683 27.13080589 20.25 27.1328125 C19.0846875 27.13410156 17.919375 27.13539062 16.71875 27.13671875 C15.4915625 27.13285156 14.264375 27.12898438 13 27.125 C11.15921875 27.13080078 11.15921875 27.13080078 9.28125 27.13671875 C8.1159375 27.13542969 6.950625 27.13414063 5.75 27.1328125 C4.67234375 27.13168457 3.5946875 27.13055664 2.484375 27.12939453 C0 27 0 27 -1 26 C-1.09949077 24.24314326 -1.1308026 22.48232667 -1.1328125 20.72265625 C-1.13410156 19.65208984 -1.13539062 18.58152344 -1.13671875 17.47851562 C-1.13285156 16.35123047 -1.12898438 15.22394531 -1.125 14.0625 C-1.12886719 12.93908203 -1.13273437 11.81566406 -1.13671875 10.65820312 C-1.13542969 9.58634766 -1.13414063 8.51449219 -1.1328125 7.41015625 C-1.13168457 6.42152588 -1.13055664 5.43289551 -1.12939453 4.41430664 C-1 2 -1 2 0 0 Z M6 5 C6 5.99 6 6.98 6 8 C6.66 7.67 7.32 7.34 8 7 C8 6.34 8 5.68 8 5 C7.34 5 6.68 5 6 5 Z M18 5 C18.33 5.99 18.66 6.98 19 8 C19.66 7.34 20.32 6.68 21 6 C20.01 5.67 19.02 5.34 18 5 Z M6 13 C6 13.66 6 14.32 6 15 C6.66 15 7.32 15 8 15 C8 14.34 8 13.68 8 13 C7.34 13 6.68 13 6 13 Z M18 13 C18 13.66 18 14.32 18 15 C18.66 15 19.32 15 20 15 C20 14.34 20 13.68 20 13 C19.34 13 18.68 13 18 13 Z M6 20 C6 20.99 6 21.98 6 23 C6.66 22.67 7.32 22.34 8 22 C8 21.34 8 20.68 8 20 C7.34 20 6.68 20 6 20 Z M18 20 C18.33 20.99 18.66 21.98 19 23 C19.66 22.34 20.32 21.68 21 21 C20.01 20.67 19.02 20.34 18 20 Z " fill="#000000" transform="translate(19,23)"/>
<path d="M0 0 C1.8569751 -0.00472824 1.8569751 -0.00472824 3.75146484 -0.009552 C5.11295609 -0.00776222 6.47444701 -0.00571127 7.8359375 -0.00341797 C9.22216814 -0.00409106 10.60839867 -0.00506113 11.99462891 -0.00631714 C14.90333172 -0.00779387 17.81200387 -0.00564037 20.72070312 -0.00097656 C24.45690348 0.00472073 28.19303202 0.00144159 31.92922974 -0.00454903 C34.79273016 -0.00815532 37.65621343 -0.00701574 40.51971436 -0.00442123 C41.89768482 -0.00375215 43.27565682 -0.00457973 44.65362549 -0.00690079 C46.57637504 -0.00942839 48.49913002 -0.0048957 50.421875 0 C52.06615479 0.00119339 52.06615479 0.00119339 53.74365234 0.00241089 C56.2109375 0.12939453 56.2109375 0.12939453 57.2109375 1.12939453 C57.48408565 6.86550564 57.48408565 6.86550564 57.2109375 9.12939453 C54.53899848 11.80133355 53.24066995 11.38255581 49.5078125 11.38818359 C48.31317383 11.39448792 47.11853516 11.40079224 45.88769531 11.4072876 C44.59186523 11.40323914 43.29603516 11.39919067 41.9609375 11.39501953 C40.62337168 11.39636631 39.28580633 11.39830696 37.94824219 11.40081787 C35.14383284 11.40376853 32.33955081 11.39947347 29.53515625 11.39013672 C25.93688828 11.37874207 22.33891864 11.38530187 18.74066162 11.39728165 C15.97832992 11.40450189 13.21606917 11.40221159 10.45373535 11.39702606 C8.48054817 11.39503928 6.50735824 11.40112295 4.53417969 11.4072876 C3.33954102 11.40098328 2.14490234 11.39467896 0.9140625 11.38818359 C-0.14135742 11.38659241 -1.19677734 11.38500122 -2.28417969 11.38336182 C-4.7890625 11.12939453 -4.7890625 11.12939453 -6.7890625 9.12939453 C-7.11658484 6.41484498 -6.919905 3.87708694 -6.7890625 1.12939453 C-5.00989783 -0.64977014 -2.40592951 0.00174618 0 0 Z " fill="#000000" transform="translate(6.7890625,52.87060546875)"/>
</svg>
