<?xml version="1.0" encoding="UTF-8"?>
<svg version="1.1" xmlns="http://www.w3.org/2000/svg" width="64" height="64">
<path d="M0 0 C10.23 0 20.46 0 31 0 C31 7.92 31 15.84 31 24 C34.63 24 38.26 24 42 24 C43.84276509 25.84276509 43.12874411 28.42963759 43.13894653 30.88134766 C43.13591019 32.11570557 43.13591019 32.11570557 43.1328125 33.375 C43.13376923 34.21466309 43.13472595 35.05432617 43.13571167 35.91943359 C43.13639348 37.69824295 43.13453917 39.47705477 43.13037109 41.25585938 C43.12502283 43.98833776 43.13031605 46.72065176 43.13671875 49.453125 C43.13605797 51.1770837 43.13477681 52.90104229 43.1328125 54.625 C43.13483673 55.44790527 43.13686096 56.27081055 43.13894653 57.11865234 C43.11495054 62.88504946 43.11495054 62.88504946 42 64 C40.07238183 64.09920863 38.14110646 64.12799365 36.2109375 64.12939453 C34.9729541 64.13254669 33.7349707 64.13569885 32.45947266 64.13894653 C31.09798141 64.13715675 29.73649049 64.1351058 28.375 64.1328125 C26.98876936 64.13348559 25.60253883 64.13445566 24.21630859 64.13571167 C21.30760578 64.1371884 18.39893363 64.1350349 15.49023438 64.13037109 C11.75403402 64.12467381 8.01790548 64.12795294 4.28170776 64.13394356 C1.41820734 64.13754985 -1.44527593 64.13641027 -4.30877686 64.13381577 C-5.68674732 64.13314668 -7.06471932 64.13397426 -8.44268799 64.13629532 C-10.36543754 64.13882292 -12.28819252 64.13429024 -14.2109375 64.12939453 C-15.85521729 64.12820114 -15.85521729 64.12820114 -17.53271484 64.12698364 C-20 64 -20 64 -21 63 C-21.10103255 60.20006403 -21.13970088 57.42531356 -21.1328125 54.625 C-21.13376923 53.78533691 -21.13472595 52.94567383 -21.13571167 52.08056641 C-21.13639348 50.30175705 -21.13453917 48.52294523 -21.13037109 46.74414062 C-21.12502283 44.01166224 -21.13031605 41.27934824 -21.13671875 38.546875 C-21.13605797 36.8229163 -21.13477681 35.09895771 -21.1328125 33.375 C-21.13483673 32.55209473 -21.13686096 31.72918945 -21.13894653 30.88134766 C-21.11495054 25.11495054 -21.11495054 25.11495054 -20 24 C-18.31391034 23.92794489 -16.62499341 23.91613932 -14.9375 23.9375 C-14.01839844 23.94652344 -13.09929688 23.95554687 -12.15234375 23.96484375 C-11.44207031 23.97644531 -10.73179688 23.98804687 -10 24 C-10.66 21.03 -11.32 18.06 -12 15 C-3.375 12 -3.375 12 0 12 C0 8.04 0 4.08 0 0 Z M3 3 C3 5.64 3 8.28 3 11 C10.425 9.515 10.425 9.515 18 8 C18.39832031 9.41152344 18.79664063 10.82304687 19.20703125 12.27734375 C19.74207958 14.16409311 20.27724191 16.05081014 20.8125 17.9375 C21.20405273 19.32678711 21.20405273 19.32678711 21.60351562 20.74414062 C23.25387932 26.55097585 25.03388869 32.29219098 27 38 C27.33 38 27.66 38 28 38 C28 26.45 28 14.9 28 3 C19.75 3 11.5 3 3 3 Z M15 11 C12.54652881 11.28795965 12.54652881 11.28795965 9.7734375 12.1171875 C8.7421875 12.39433594 7.7109375 12.67148438 6.6484375 12.95703125 C5.02808594 13.41142578 5.02808594 13.41142578 3.375 13.875 C2.28703125 14.17019531 1.1990625 14.46539062 0.078125 14.76953125 C-2.61762689 15.50258659 -5.30991221 16.24647224 -8 17 C-5.42869199 28.47751454 -2.43526061 39.75092939 1 51 C6.44674846 50.40492603 11.6395722 49.51444653 16.9375 48.125 C17.94393555 47.88330078 17.94393555 47.88330078 18.97070312 47.63671875 C21.1217829 47.10832437 21.1217829 47.10832437 24 46 C25.29683661 42.10949016 24.47147682 40.1643981 23.41796875 36.21484375 C23.24372879 35.55795059 23.06948883 34.90105743 22.88996887 34.22425842 C22.51983299 32.83713234 22.14551626 31.45111608 21.76733398 30.06616211 C21.18948838 27.94479967 20.6280212 25.81958231 20.06835938 23.69335938 C19.70670083 22.34609296 19.34410212 20.99907849 18.98046875 19.65234375 C18.64942139 18.42507568 18.31837402 17.19780762 17.97729492 15.93334961 C17.2153759 12.91714417 17.2153759 12.91714417 15 11 Z M-18 27 C-18 38.22 -18 49.44 -18 61 C-17.34 61 -16.68 61 -16 61 C-15.90912109 59.82630859 -15.90912109 59.82630859 -15.81640625 58.62890625 C-15.73261719 57.61699219 -15.64882812 56.60507812 -15.5625 55.5625 C-15.48128906 54.55316406 -15.40007813 53.54382813 -15.31640625 52.50390625 C-15 50 -15 50 -14 49 C-13.90176063 47.33570949 -13.87026369 45.66718069 -13.875 44 C-13.87242188 43.0925 -13.86984375 42.185 -13.8671875 41.25 C-13.74826221 39.03033389 -13.74826221 39.03033389 -15 38 C-15.23363881 36.15108054 -15.41303635 34.29511969 -15.5625 32.4375 C-15.64628906 31.42558594 -15.73007813 30.41367187 -15.81640625 29.37109375 C-15.87699219 28.58863281 -15.93757812 27.80617188 -16 27 C-16.66 27 -17.32 27 -18 27 Z M-13 27 C-13.02689216 28.47906892 -13.04634621 29.95827483 -13.0625 31.4375 C-13.07410156 32.26121094 -13.08570313 33.08492187 -13.09765625 33.93359375 C-13.23267348 35.99163938 -13.23267348 35.99163938 -12 37 C-11.90090698 39.33160055 -11.87029496 41.66629942 -11.875 44 C-11.87242188 45.27875 -11.86984375 46.5575 -11.8671875 47.875 C-12 51 -12 51 -13 52 C-13 54.97 -13 57.94 -13 61 C2.84 61 18.68 61 35 61 C35 56.71 35 52.42 35 48 C35.99 48 36.98 48 38 48 C38 52.29 38 56.58 38 61 C38.66 61 39.32 61 40 61 C40 49.78 40 38.56 40 27 C39.34 27 38.68 27 38 27 C38 31.29 38 35.58 38 40 C37.01 40 36.02 40 35 40 C35 35.71 35 31.42 35 27 C33.68 27 32.36 27 31 27 C31 31.95 31 36.9 31 42 C30.01 42 29.02 42 28 42 C28.495 44.97 28.495 44.97 29 48 C28.40719238 48.1139209 27.81438477 48.2278418 27.20361328 48.34521484 C20.71952829 49.61375785 14.2967284 51.07368359 7.875 52.625 C6.44027344 52.96917969 6.44027344 52.96917969 4.9765625 53.3203125 C2.65063385 53.87853538 0.32512778 54.43845244 -2 55 C-2.1139209 54.38979004 -2.2278418 53.77958008 -2.34521484 53.15087891 C-3.503253 47.13484186 -4.93982177 41.26332624 -6.625 35.375 C-6.85445312 34.56160156 -7.08390625 33.74820313 -7.3203125 32.91015625 C-7.87683251 30.93914787 -8.43791876 28.96942967 -9 27 C-10.32 27 -11.64 27 -13 27 Z " fill="#000000" transform="translate(21,0)"/>
<path d="M0 0 C1.875 1.625 1.875 1.625 3 4 C2.82213241 8.26882213 1.82066016 10.81142765 -1 14 C-4.73353364 13.7128051 -7.32404139 13.46797134 -10.4375 11.3125 C-12.45379318 8.3283861 -12.46084551 6.53314892 -12 3 C-8.81643034 -0.18356966 -4.39505537 -0.57829676 0 0 Z M-9 5 C-8.28436734 7.0162233 -8.28436734 7.0162233 -7 9 C-4.94999129 9.80528889 -4.94999129 9.80528889 -3 10 C-0.69328085 7.28450846 -0.69328085 7.28450846 -1.375 4.8125 C-1.58125 4.214375 -1.7875 3.61625 -2 3 C-4.35287614 3 -6.79373224 4.24893012 -9 5 Z " fill="#000000" transform="translate(34,24)"/>
<path d="M0 0 C0.99 0.33 1.98 0.66 3 1 C2.67 1.99 2.34 2.98 2 4 C1.01 3.67 0.02 3.34 -1 3 C-0.67 2.01 -0.34 1.02 0 0 Z " fill="#000000" transform="translate(16,18)"/>
<path d="M0 0 C0.66 0 1.32 0 2 0 C2 1.32 2 2.64 2 4 C1.01 3.67 0.02 3.34 -1 3 C-0.67 2.01 -0.34 1.02 0 0 Z " fill="#000000" transform="translate(57,42)"/>
<path d="M0 0 C0.99 0.33 1.98 0.66 3 1 C3 1.66 3 2.32 3 3 C1.68 3 0.36 3 -1 3 C-0.67 2.01 -0.34 1.02 0 0 Z " fill="#000000" transform="translate(41,41)"/>
<path d="M0 0 C0.99 0 1.98 0 3 0 C3 0.99 3 1.98 3 3 C2.01 3 1.02 3 0 3 C0 2.01 0 1.02 0 0 Z " fill="#000000" transform="translate(26,5)"/>
</svg>
