<?xml version="1.0" encoding="UTF-8"?>
<svg version="1.1" xmlns="http://www.w3.org/2000/svg" width="64" height="64">
<path d="M0 0 C2.0898686 -0.0171578 4.17813146 -0.06103617 6.26757812 -0.10522461 C7.6061082 -0.11535709 8.94465169 -0.12387146 10.28320312 -0.13061523 C12.10223145 -0.15248901 12.10223145 -0.15248901 13.95800781 -0.17480469 C19.05183951 0.52861181 22.08980779 2.98832567 25.61132812 6.60766602 C30.18787248 13.63593057 30.38619303 22.38228031 30.67382812 30.54516602 C30.72990234 32.03790039 30.72990234 32.03790039 30.78710938 33.56079102 C30.24162255 37.06391744 29.1693697 38.19036427 26.36132812 40.29516602 C23.61544996 41.0245399 21.13905338 40.84611979 18.36132812 40.29516602 C14.25508672 37.55767175 12.18874532 32.78594657 10.36132812 28.29516602 C10.36132812 27.63516602 10.36132812 26.97516602 10.36132812 26.29516602 C5.08132812 26.29516602 -0.19867188 26.29516602 -5.63867188 26.29516602 C-6.29867188 28.27516602 -6.95867188 30.25516602 -7.63867188 32.29516602 C-10.7991657 38.87541293 -10.7991657 38.87541293 -13.63867188 40.29516602 C-20.86360412 40.87782184 -20.86360412 40.87782184 -23.87304688 38.61547852 C-28.09076418 33.07272613 -25.71007542 23.93912322 -24.88867188 17.42016602 C-23.608144 9.92504833 -20.85343566 5.71091923 -14.63867188 1.29516602 C-10.37020018 -0.83906983 -4.73724482 0.02709209 0 0 Z M12.36132812 7.29516602 C12.69132812 8.61516602 13.02132812 9.93516602 13.36132812 11.29516602 C14.35132813 10.96516602 15.34132812 10.63516602 16.36132812 10.29516602 C16.36132812 9.30516602 16.36132812 8.31516602 16.36132812 7.29516602 C15.04132812 7.29516602 13.72132812 7.29516602 12.36132812 7.29516602 Z M-11.63867188 8.29516602 C-11.63867188 9.61516602 -11.63867188 10.93516602 -11.63867188 12.29516602 C-12.95867188 12.29516602 -14.27867188 12.29516602 -15.63867188 12.29516602 C-15.63867188 13.61516602 -15.63867188 14.93516602 -15.63867188 16.29516602 C-14.31867187 16.29516602 -12.99867187 16.29516602 -11.63867188 16.29516602 C-11.63867188 17.61516602 -11.63867188 18.93516602 -11.63867188 20.29516602 C-10.31867187 20.29516602 -8.99867187 20.29516602 -7.63867188 20.29516602 C-7.63867188 18.97516602 -7.63867188 17.65516602 -7.63867188 16.29516602 C-6.31867187 16.29516602 -4.99867187 16.29516602 -3.63867188 16.29516602 C-3.63867188 14.97516602 -3.63867188 13.65516602 -3.63867188 12.29516602 C-4.95867188 12.29516602 -6.27867188 12.29516602 -7.63867188 12.29516602 C-7.63867188 10.97516602 -7.63867188 9.65516602 -7.63867188 8.29516602 C-8.95867188 8.29516602 -10.27867188 8.29516602 -11.63867188 8.29516602 Z M7.36132812 12.29516602 C7.36132812 13.61516602 7.36132812 14.93516602 7.36132812 16.29516602 C8.68132813 15.96516602 10.00132813 15.63516602 11.36132812 15.29516602 C11.03132813 14.30516602 10.70132813 13.31516602 10.36132812 12.29516602 C9.37132812 12.29516602 8.38132813 12.29516602 7.36132812 12.29516602 Z M18.36132812 12.29516602 C18.36132812 13.61516602 18.36132812 14.93516602 18.36132812 16.29516602 C19.35132813 16.29516602 20.34132812 16.29516602 21.36132812 16.29516602 C21.36132812 14.97516602 21.36132812 13.65516602 21.36132812 12.29516602 C20.37132812 12.29516602 19.38132813 12.29516602 18.36132812 12.29516602 Z M13.36132812 17.29516602 C13.03132813 18.61516602 12.70132813 19.93516602 12.36132812 21.29516602 C13.68132813 21.29516602 15.00132813 21.29516602 16.36132812 21.29516602 C16.03132813 19.97516602 15.70132813 18.65516602 15.36132812 17.29516602 C14.70132813 17.29516602 14.04132812 17.29516602 13.36132812 17.29516602 Z " fill="#000000" transform="translate(29.638671875,11.704833984375)"/>
</svg>
