<?xml version="1.0" encoding="UTF-8"?>
<svg version="1.1" xmlns="http://www.w3.org/2000/svg" width="64" height="64">
<path d="M0 0 C0.82290527 0.00202423 1.64581055 0.00404846 2.49365234 0.00613403 C3.33331543 0.00517731 4.17297852 0.00422058 5.03808594 0.00323486 C6.81689529 0.00255306 8.59570712 0.00440737 10.37451172 0.00857544 C13.10699011 0.01392371 15.83930411 0.00863048 18.57177734 0.00222778 C20.29573604 0.00288856 22.01969464 0.00416973 23.74365234 0.00613403 C24.56655762 0.0041098 25.38946289 0.00208557 26.23730469 0 C32.0037018 0.02399599 32.0037018 0.02399599 33.11865234 1.13894653 C33.20121874 2.57164278 33.21507984 4.00839114 33.20043945 5.44338989 C33.19390854 6.35781357 33.18737762 7.27223724 33.1806488 8.21437073 C33.16921341 9.20912918 33.15777802 10.20388763 33.14599609 11.22879028 C33.13335023 13.312773 33.12098924 15.39675746 33.10888672 17.48074341 C33.08403338 20.78377635 33.05604863 24.08672038 33.02270508 27.38967896 C32.99260177 30.56522206 32.97475721 33.74065047 32.95849609 36.91629028 C32.94503647 37.90902451 32.93157684 38.90175873 32.91770935 39.92457581 C32.9143306 40.84215164 32.91095184 41.75972748 32.9074707 42.70510864 C32.90001328 43.51483627 32.89255585 44.3245639 32.88487244 45.15882874 C32.9389443 47.37211966 32.9389443 47.37211966 35.11865234 49.13894653 C35.67907313 52.5250679 35.63808637 55.74895605 35.11865234 59.13894653 C33.11865234 61.76394653 33.11865234 61.76394653 30.11865234 63.13894653 C27.35632695 63.45064862 24.9228936 63.31986532 22.11865234 63.13894653 C19.19318794 62.91533974 19.19318794 62.91533974 17.11865234 64.13894653 C8.7276749 64.54496157 8.7276749 64.54496157 5.11865234 62.13894653 C4.62365234 62.63394653 4.62365234 62.63394653 4.11865234 63.13894653 C-0.06768236 63.65693115 -3.68554893 63.78059463 -7.44384766 61.76394653 C-9.64858624 57.73790215 -9.52672164 53.63405139 -8.88134766 49.13894653 C-8.22134766 48.14894653 -7.56134766 47.15894653 -6.88134766 46.13894653 C-6.59937507 44.02611935 -6.59937507 44.02611935 -6.67016602 41.68338013 C-6.67523415 40.3371608 -6.67523415 40.3371608 -6.68040466 38.96374512 C-6.69386429 37.99804596 -6.70732391 37.0323468 -6.72119141 36.03738403 C-6.72639297 35.04517853 -6.73159454 34.05297302 -6.73695374 33.03070068 C-6.75478637 29.85830131 -6.78597308 26.68622296 -6.81884766 23.51394653 C-6.8464132 20.33456054 -6.87111337 17.15521853 -6.89002991 13.97576904 C-6.90234212 11.99588951 -6.91999828 10.01603505 -6.94334412 8.03625488 C-6.95314049 6.69949203 -6.95314049 6.69949203 -6.96313477 5.33572388 C-6.9755143 4.15349747 -6.9755143 4.15349747 -6.98814392 2.9473877 C-6.74409427 -1.1852422 -3.35928936 0.01397917 0 0 Z M-3.88134766 3.13894653 C-3.88134766 5.77894653 -3.88134766 8.41894653 -3.88134766 11.13894653 C7.33865234 11.13894653 18.55865234 11.13894653 30.11865234 11.13894653 C30.11865234 8.49894653 30.11865234 5.85894653 30.11865234 3.13894653 C28.44191585 1.46221004 26.39010159 2.01106836 24.15209961 2 C23.11460571 2.00303635 23.11460571 2.00303635 22.05615234 2.00613403 C21.34966553 2.00517731 20.64317871 2.00422058 19.9152832 2.00323486 C18.41894441 2.00255321 16.92260267 2.00440649 15.42626953 2.00857544 C13.12835077 2.01392396 10.83062748 2.00863003 8.53271484 2.00222778 C7.08219358 2.00288857 5.63167243 2.00416974 4.18115234 2.00613403 C3.48948975 2.0041098 2.79782715 2.00208557 2.08520508 2 C-1.17870403 1.7366392 -1.17870403 1.7366392 -3.88134766 3.13894653 Z M0.11865234 17.13894653 C-0.21134766 18.78894653 -0.54134766 20.43894653 -0.88134766 22.13894653 C1.59365234 22.63394653 1.59365234 22.63394653 4.11865234 23.13894653 C4.44865234 21.48894653 4.77865234 19.83894653 5.11865234 18.13894653 C3.46865234 17.80894653 1.81865234 17.47894653 0.11865234 17.13894653 Z M11.11865234 17.13894653 C10.78865234 18.78894653 10.45865234 20.43894653 10.11865234 22.13894653 C12.59365234 22.63394653 12.59365234 22.63394653 15.11865234 23.13894653 C15.44865234 21.48894653 15.77865234 19.83894653 16.11865234 18.13894653 C14.46865234 17.80894653 12.81865234 17.47894653 11.11865234 17.13894653 Z M22.11865234 17.13894653 C21.78865234 18.78894653 21.45865234 20.43894653 21.11865234 22.13894653 C23.59365234 22.63394653 23.59365234 22.63394653 26.11865234 23.13894653 C26.44865234 21.48894653 26.77865234 19.83894653 27.11865234 18.13894653 C25.46865234 17.80894653 23.81865234 17.47894653 22.11865234 17.13894653 Z M0.11865234 28.13894653 C-0.21134766 29.78894653 -0.54134766 31.43894653 -0.88134766 33.13894653 C1.59365234 33.63394653 1.59365234 33.63394653 4.11865234 34.13894653 C4.44865234 32.48894653 4.77865234 30.83894653 5.11865234 29.13894653 C3.46865234 28.80894653 1.81865234 28.47894653 0.11865234 28.13894653 Z M11.11865234 28.13894653 C10.78865234 29.78894653 10.45865234 31.43894653 10.11865234 33.13894653 C12.59365234 33.63394653 12.59365234 33.63394653 15.11865234 34.13894653 C15.44865234 32.48894653 15.77865234 30.83894653 16.11865234 29.13894653 C14.46865234 28.80894653 12.81865234 28.47894653 11.11865234 28.13894653 Z M22.11865234 28.13894653 C21.78865234 29.78894653 21.45865234 31.43894653 21.11865234 33.13894653 C23.59365234 33.63394653 23.59365234 33.63394653 26.11865234 34.13894653 C26.44865234 32.48894653 26.77865234 30.83894653 27.11865234 29.13894653 C25.46865234 28.80894653 23.81865234 28.47894653 22.11865234 28.13894653 Z M0.11865234 39.13894653 C-0.21134766 40.78894653 -0.54134766 42.43894653 -0.88134766 44.13894653 C-1.87134766 44.46894653 -2.86134766 44.79894653 -3.88134766 45.13894653 C-0.58134766 45.46894653 2.71865234 45.79894653 6.11865234 46.13894653 C5.45865234 43.82894653 4.79865234 41.51894653 4.11865234 39.13894653 C2.79865234 39.13894653 1.47865234 39.13894653 0.11865234 39.13894653 Z M11.11865234 39.13894653 C10.45865234 41.44894653 9.79865234 43.75894653 9.11865234 46.13894653 C11.75865234 46.13894653 14.39865234 46.13894653 17.11865234 46.13894653 C16.45865234 43.82894653 15.79865234 41.51894653 15.11865234 39.13894653 C13.79865234 39.13894653 12.47865234 39.13894653 11.11865234 39.13894653 Z M22.11865234 39.13894653 C21.45865234 41.44894653 20.79865234 43.75894653 20.11865234 46.13894653 C23.41865234 45.80894653 26.71865234 45.47894653 30.11865234 45.13894653 C29.12865234 44.80894653 28.13865234 44.47894653 27.11865234 44.13894653 C26.78865234 42.48894653 26.45865234 40.83894653 26.11865234 39.13894653 C24.79865234 39.13894653 23.47865234 39.13894653 22.11865234 39.13894653 Z M6.11865234 46.13894653 C6.44865234 46.79894653 6.77865234 47.45894653 7.11865234 48.13894653 C7.44865234 47.47894653 7.77865234 46.81894653 8.11865234 46.13894653 C7.45865234 46.13894653 6.79865234 46.13894653 6.11865234 46.13894653 Z M17.11865234 46.13894653 C18.60365234 47.12894653 18.60365234 47.12894653 20.11865234 48.13894653 C20.11865234 47.47894653 20.11865234 46.81894653 20.11865234 46.13894653 C19.12865234 46.13894653 18.13865234 46.13894653 17.11865234 46.13894653 Z M-2.88134766 48.13894653 C-2.24197266 48.38644653 -1.60259766 48.63394653 -0.94384766 48.88894653 C1.11865234 50.13894653 1.11865234 50.13894653 1.86865234 52.01394653 C2.11865234 54.13894653 2.11865234 54.13894653 2.11865234 58.13894653 C0.46865234 58.46894653 -1.18134766 58.79894653 -2.88134766 59.13894653 C-2.88134766 59.46894653 -2.88134766 59.79894653 -2.88134766 60.13894653 C-0.57134766 60.13894653 1.73865234 60.13894653 4.11865234 60.13894653 C4.44865234 56.50894653 4.77865234 52.87894653 5.11865234 49.13894653 C2.40985899 47.78454986 0.10931967 48.07393203 -2.88134766 48.13894653 Z M21.11865234 49.13894653 C21.11865234 53.09894653 21.11865234 57.05894653 21.11865234 61.13894653 C26.36096068 60.83924499 26.36096068 60.83924499 31.11865234 58.95144653 C32.62681116 56.21790868 32.50127245 54.19990737 32.11865234 51.13894653 C31.11865234 49.13894653 31.11865234 49.13894653 29.11865234 48.13894653 C26.02364026 47.88629249 23.91735261 47.7395964 21.11865234 49.13894653 Z M-5.88134766 51.13894653 C-5.88134766 53.11894653 -5.88134766 55.09894653 -5.88134766 57.13894653 C-4.89134766 57.63394653 -4.89134766 57.63394653 -3.88134766 58.13894653 C-3.22134766 56.81894653 -2.56134766 55.49894653 -1.88134766 54.13894653 C-2.87134766 54.13894653 -3.86134766 54.13894653 -4.88134766 54.13894653 C-5.21134766 53.14894653 -5.54134766 52.15894653 -5.88134766 51.13894653 Z M11.11865234 51.13894653 C11.11865234 51.79894653 11.11865234 52.45894653 11.11865234 53.13894653 C11.77865234 53.13894653 12.43865234 53.13894653 13.11865234 53.13894653 C13.44865234 53.79894653 13.77865234 54.45894653 14.11865234 55.13894653 C14.44865234 54.14894653 14.77865234 53.15894653 15.11865234 52.13894653 C13.79865234 51.80894653 12.47865234 51.47894653 11.11865234 51.13894653 Z M15.11865234 56.13894653 C16.11865234 58.13894653 16.11865234 58.13894653 16.11865234 58.13894653 Z M11.11865234 58.13894653 C15.11865234 59.13894653 15.11865234 59.13894653 15.11865234 59.13894653 Z " fill="#000000" transform="translate(18.88134765625,-0.138946533203125)"/>
<path d="M0 0 C0 13.2 0 26.4 0 40 C-3.55701389 36.44298611 -3.96099361 31.11209517 -5.14160156 26.32568359 C-5.61873647 24.40027557 -6.11394316 22.47937512 -6.609375 20.55859375 C-8.19038715 14.22790223 -9.44412398 8.53026737 -9 2 C-3.375 0 -3.375 0 0 0 Z " fill="#000000" transform="translate(11,6)"/>
<path d="M0 0 C4.455 0.99 4.455 0.99 9 2 C9.53162567 9.81686637 7.56780939 16.84275885 5.625 24.375 C5.30398733 25.67039961 4.98366925 26.96597155 4.6640625 28.26171875 C2.26263039 37.73736961 2.26263039 37.73736961 0 40 C0 26.8 0 13.6 0 0 Z " fill="#000000" transform="translate(53,6)"/>
<path d="M0 0 C7.92 0 15.84 0 24 0 C24 0.66 24 1.32 24 2 C16.08 2 8.16 2 0 2 C0 1.34 0 0.68 0 0 Z " fill="#000000" transform="translate(20,6)"/>
<path d="M0 0 C1.98 0 3.96 0 6 0 C5.125 6.75 5.125 6.75 4 9 C3.01 9 2.02 9 1 9 C1.33 7.02 1.66 5.04 2 3 C1.34 3 0.68 3 0 3 C0 2.01 0 1.02 0 0 Z " fill="#000000" transform="translate(43,50)"/>
</svg>
