<?xml version="1.0" encoding="UTF-8"?>
<svg version="1.1" xmlns="http://www.w3.org/2000/svg" width="64" height="64">
<path d="M0 0 C0.50273438 0.32097656 1.00546875 0.64195313 1.5234375 0.97265625 C1.5234375 1.96265625 1.5234375 2.95265625 1.5234375 3.97265625 C0.4096875 3.72515625 0.4096875 3.72515625 -0.7265625 3.47265625 C-10.33070532 2.19210387 -18.39077979 2.01622557 -26.4765625 7.97265625 C-31.82542154 13.27712642 -34.09477187 18.84931742 -34.7890625 26.34765625 C-34.26836712 32.38772263 -32.87564943 37.68774595 -28.7890625 42.28515625 C-26.4765625 44.97265625 -26.4765625 44.97265625 -26.4765625 48.97265625 C-32.33879292 46.4729606 -35.46852414 41.40111231 -37.8515625 35.66015625 C-39.54472582 25.67049266 -38.64490587 17.65503172 -33.2265625 8.96875 C-25.87780317 -0.69737378 -11.39819216 -4.72827214 0 0 Z " fill="#000000" transform="translate(42.4765625,1.02734375)"/>
<path d="M0 0 C1.921875 0.3515625 1.921875 0.3515625 4 1 C7.37105676 7.40500785 6.84978159 15.86466815 4.9375 22.6875 C3.09722902 27.58899098 -0.09345184 31.54529355 -4 35 C-4.66 35 -5.32 35 -6 35 C-5.67913583 31.47049414 -4.67301463 29.37487642 -2.5625 26.625 C1.50336092 21.19601808 2.46258839 15.70753172 2 9 C1.43790108 5.97144978 0.75812803 2.98512911 0 0 Z " fill="#000000" transform="translate(54,15)"/>
<path d="M0 0 C3.3 0 6.6 0 10 0 C10 3.96 10 7.92 10 12 C6.7 12 3.4 12 0 12 C0 8.04 0 4.08 0 0 Z " fill="#000000" transform="translate(35,52)"/>
<path d="M0 0 C3.3 0 6.6 0 10 0 C10 3.96 10 7.92 10 12 C6.7 12 3.4 12 0 12 C0 8.04 0 4.08 0 0 Z " fill="#000000" transform="translate(19,52)"/>
<path d="M0 0 C1.9375 1.0625 1.9375 1.0625 3 3 C2.6875 6.6875 2.6875 6.6875 2 10 C-3.24024641 12.14373717 -3.24024641 12.14373717 -6.3125 11.5625 C-8 10 -8 10 -8.9375 6.5625 C-9 3 -9 3 -7.9375 1.0625 C-5.13281671 -0.47555213 -3.14485925 -0.39310741 0 0 Z " fill="#000000" transform="translate(35,22)"/>
<path d="M0 0 C5.65889029 2.26355612 5.65889029 2.26355612 8.3125 5.5 C8.82425781 6.1084375 9.33601563 6.716875 9.86328125 7.34375 C11 9 11 9 11 11 C9.37548581 11.33569297 7.75037083 11.6684796 6.125 12 C5.22007813 12.185625 4.31515625 12.37125 3.3828125 12.5625 C1 13 1 13 -1 13 C-0.67 8.71 -0.34 4.42 0 0 Z " fill="#000000" transform="translate(45,3)"/>
<path d="M0 0 C1.32 0 2.64 0 4 0 C4 5.28 4 10.56 4 16 C2.68 16 1.36 16 0 16 C0 10.72 0 5.44 0 0 Z " fill="#000000" transform="translate(30,4)"/>
<path d="M0 0 C3.96 0 7.92 0 12 0 C12 1.65 12 3.3 12 5 C8.04 5 4.08 5 0 5 C0 3.35 0 1.7 0 0 Z " fill="#000000" transform="translate(35,46)"/>
<path d="M0 0 C3.96 0 7.92 0 12 0 C12 1.65 12 3.3 12 5 C8.04 5 4.08 5 0 5 C0 3.35 0 1.7 0 0 Z " fill="#000000" transform="translate(17,46)"/>
<path d="M0 0 C3.68069887 1.53643852 5.98775204 3.78150945 8.75 6.625 C9.54921875 7.44226562 10.3484375 8.25953125 11.171875 9.1015625 C12.07679687 10.04128906 12.07679687 10.04128906 13 11 C12.67 11.66 12.34 12.32 12 13 C7.89552608 12.48223379 6.04300477 10.35372556 3.25 7.4375 C2.45078125 6.61121094 1.6515625 5.78492188 0.828125 4.93359375 C0.22484375 4.29550781 -0.3784375 3.65742187 -1 3 C-0.67 2.01 -0.34 1.02 0 0 Z " fill="#000000" transform="translate(37,32)"/>
<path d="M0 0 C0.99 0.33 1.98 0.66 3 1 C1.53374144 4.34820898 -0.33658447 6.69266359 -2.875 9.3125 C-3.55304687 10.03050781 -4.23109375 10.74851562 -4.9296875 11.48828125 C-7 13 -7 13 -9.2578125 12.73046875 C-10.12019531 12.36888672 -10.12019531 12.36888672 -11 12 C-7.49102731 7.81576108 -3.91939465 3.80411834 0 0 Z " fill="#000000" transform="translate(25,32)"/>
<path d="M0 0 C3.68069887 1.53643852 5.98775204 3.78150945 8.75 6.625 C9.54921875 7.44226563 10.3484375 8.25953125 11.171875 9.1015625 C12.07679687 10.04128906 12.07679687 10.04128906 13 11 C12.67 11.66 12.34 12.32 12 13 C7.89552608 12.48223379 6.04300477 10.35372556 3.25 7.4375 C2.45078125 6.61121094 1.6515625 5.78492188 0.828125 4.93359375 C0.22484375 4.29550781 -0.3784375 3.65742188 -1 3 C-0.67 2.01 -0.34 1.02 0 0 Z " fill="#000000" transform="translate(15,10)"/>
<path d="M0 0 C5.61 0 11.22 0 17 0 C17 0.99 17 1.98 17 3 C11.39 3 5.78 3 0 3 C0 2.01 0 1.02 0 0 Z " fill="#000000" transform="translate(39,26)"/>
<path d="M0 0 C5.61 0 11.22 0 17 0 C17 0.99 17 1.98 17 3 C11.39 3 5.78 3 0 3 C0 2.01 0 1.02 0 0 Z " fill="#000000" transform="translate(8,26)"/>
<path d="M0 0 C0.99 0.33 1.98 0.66 3 1 C3 4.63 3 8.26 3 12 C1.68 12 0.36 12 -1 12 C-1.02687279 10.18757948 -1.04633715 8.37504767 -1.0625 6.5625 C-1.07410156 5.55316406 -1.08570312 4.54382812 -1.09765625 3.50390625 C-1 1 -1 1 0 0 Z " fill="#000000" transform="translate(31,52)"/>
<path d="M0 0 C0.66 0.33 1.32 0.66 2 1 C1.59316505 3.35964273 1.10185661 4.85934088 -0.3125 6.8125 C-0.869375 7.204375 -1.42625 7.59625 -2 8 C-3.32 7.67 -4.64 7.34 -6 7 C-4.02 4.69 -2.04 2.38 0 0 Z " fill="#000000" transform="translate(42,15)"/>
<path d="M0 0 C1.32 0 2.64 0 4 0 C4 1.65 4 3.3 4 5 C2.68 5 1.36 5 0 5 C0 3.35 0 1.7 0 0 Z " fill="#000000" transform="translate(30,46)"/>
<path d="M0 0 C0.33 1.32 0.66 2.64 1 4 C-0.65 4 -2.3 4 -4 4 C-3.67 3.01 -3.34 2.02 -3 1 C-2.01 0.67 -1.02 0.34 0 0 Z " fill="#000000" transform="translate(39,41)"/>
<path d="M0 0 C2.475 0.99 2.475 0.99 5 2 C5 2.66 5 3.32 5 4 C3.35 4 1.7 4 0 4 C0 2.68 0 1.36 0 0 Z " fill="#000000" transform="translate(24,41)"/>
<path d="M0 0 C0.99 0.33 1.98 0.66 3 1 C3 1.99 3 2.98 3 4 C1.68 4 0.36 4 -1 4 C-0.67 2.68 -0.34 1.36 0 0 Z " fill="#000000" transform="translate(31,41)"/>
</svg>
