<?xml version="1.0" encoding="UTF-8"?>
<svg version="1.1" xmlns="http://www.w3.org/2000/svg" width="64" height="64">
<path d="M0 0 C0.69134033 -0.00478363 1.38268066 -0.00956726 2.0949707 -0.01449585 C3.55064176 -0.01788486 5.00638996 -0.008752 6.46191406 0.01220703 C8.68207497 0.03899704 10.89718261 0.01243603 13.1171875 -0.01953125 C14.53646942 -0.01622696 15.95574821 -0.00982031 17.375 0 C18.65761719 0.00563965 19.94023438 0.0112793 21.26171875 0.01708984 C25.540346 0.82512592 27.0230532 2.28684965 29.6875 5.6640625 C30.3515625 8.6015625 30.3515625 8.6015625 30.3125 11.6640625 C30.32539062 12.6746875 30.33828125 13.6853125 30.3515625 14.7265625 C29.44648207 18.73021241 27.86048685 20.09793396 24.6875 22.6640625 C21.26171875 23.31103516 21.26171875 23.31103516 17.375 23.328125 C16.3379895 23.33530045 16.3379895 23.33530045 15.2800293 23.34262085 C13.82435824 23.34600986 12.36861004 23.336877 10.91308594 23.31591797 C8.69292503 23.28912796 6.47781739 23.31568897 4.2578125 23.34765625 C2.83853058 23.34435196 1.41925179 23.33794531 0 23.328125 C-1.28261719 23.32248535 -2.56523437 23.3168457 -3.88671875 23.31103516 C-8.165346 22.50299908 -9.6480532 21.04127535 -12.3125 17.6640625 C-12.9765625 14.7265625 -12.9765625 14.7265625 -12.9375 11.6640625 C-12.95039063 10.6534375 -12.96328125 9.6428125 -12.9765625 8.6015625 C-11.38804626 1.57471417 -6.6120229 0.02907297 0 0 Z M-9.6875 7.4140625 C-10.61770221 10.76279047 -10.10453917 13.31312754 -9.3125 16.6640625 C-7.41716125 19.24861535 -6.42423483 19.62681756 -3.3125 20.6640625 C0.64149893 20.92259621 4.60094802 20.89544181 8.5625 20.9140625 C10.19638672 20.945 10.19638672 20.945 11.86328125 20.9765625 C13.44302734 20.98429687 13.44302734 20.98429687 15.0546875 20.9921875 C16.01487793 21.0015332 16.97506836 21.01087891 17.96435547 21.02050781 C21.84579081 20.51244832 24.63632242 19.00192488 27.0625 15.9140625 C27.99270221 12.56533453 27.47953917 10.01499746 26.6875 6.6640625 C24.79216125 4.07950965 23.79923483 3.70130744 20.6875 2.6640625 C16.73350107 2.40552879 12.77405198 2.43268319 8.8125 2.4140625 C7.72324219 2.3934375 6.63398438 2.3728125 5.51171875 2.3515625 C3.93197266 2.34382813 3.93197266 2.34382813 2.3203125 2.3359375 C1.36012207 2.3265918 0.39993164 2.31724609 -0.58935547 2.30761719 C-4.47079081 2.81567668 -7.26132242 4.32620012 -9.6875 7.4140625 Z " fill="#000000" transform="translate(23.3125,20.3359375)"/>
<path d="M0 0 C8.58 0 17.16 0 26 0 C26 3.3 26 6.6 26 10 C17.42 10 8.84 10 0 10 C0 6.7 0 3.4 0 0 Z M2 2 C2 3.98 2 5.96 2 8 C9.26 8 16.52 8 24 8 C24 6.02 24 4.04 24 2 C16.74 2 9.48 2 2 2 Z " fill="#000000" transform="translate(19,27)"/>
<path d="M0 0 C1.98 0 3.96 0 6 0 C6 1.98 6 3.96 6 6 C4.02 6 2.04 6 0 6 C0 4.02 0 2.04 0 0 Z " fill="#000000" transform="translate(29,45)"/>
<path d="M0 0 C1.32 0 2.64 0 4 0 C4 1.32 4 2.64 4 4 C2.68 4 1.36 4 0 4 C0 2.68 0 1.36 0 0 Z " fill="#000000" transform="translate(54,20)"/>
<path d="M0 0 C1.32 0 2.64 0 4 0 C4 1.32 4 2.64 4 4 C2.68 4 1.36 4 0 4 C0 2.68 0 1.36 0 0 Z " fill="#000000" transform="translate(6,20)"/>
<path d="M0 0 C1.32 0 2.64 0 4 0 C4 1.32 4 2.64 4 4 C2.68 4 1.36 4 0 4 C0 2.68 0 1.36 0 0 Z " fill="#000000" transform="translate(44,14)"/>
<path d="M0 0 C1.32 0 2.64 0 4 0 C4 1.32 4 2.64 4 4 C2.68 4 1.36 4 0 4 C0 2.68 0 1.36 0 0 Z " fill="#000000" transform="translate(30,14)"/>
<path d="M0 0 C1.32 0 2.64 0 4 0 C4 1.32 4 2.64 4 4 C2.68 4 1.36 4 0 4 C0 2.68 0 1.36 0 0 Z " fill="#000000" transform="translate(16,14)"/>
</svg>
