<?xml version="1.0" encoding="UTF-8"?>
<svg version="1.1" xmlns="http://www.w3.org/2000/svg" width="64" height="64">
<path d="M0 0 C3.96 0 7.92 0 12 0 C12 0.66 12 1.32 12 2 C12.763125 1.773125 13.52625 1.54625 14.3125 1.3125 C15.199375 1.209375 16.08625 1.10625 17 1 C18.5625 2.375 18.5625 2.375 20 4 C22.10332891 4.71447643 22.10332891 4.71447643 24 5 C24.495 6.98 24.495 6.98 25 9 C26.32 9 27.64 9 29 9 C29 10.65 29 12.3 29 14 C29.61875 14.04125 30.2375 14.0825 30.875 14.125 C31.57625 14.41375 32.2775 14.7025 33 15 C34.1875 17.875 34.1875 17.875 35 21 C35.495 22.485 35.495 22.485 36 24 C35.505 25.485 35.505 25.485 35 27 C35.32550502 28.66821323 35.65846063 30.33499557 36 32 C35.505 32.99 35.505 32.99 35 34 C35.185625 34.66 35.37125 35.32 35.5625 36 C35.706875 36.66 35.85125 37.32 36 38 C35.34 38.66 34.68 39.32 34 40 C33.28591666 41.98356483 32.61382258 43.98315437 32 46 C31.01 46 30.02 46 29 46 C29 47.65 29 49.3 29 51 C27.68 51 26.36 51 25 51 C24.9071875 51.928125 24.9071875 51.928125 24.8125 52.875 C24 55 24 55 21.5625 56.125 C20.716875 56.41375 19.87125 56.7025 19 57 C18.34 57.66 17.68 58.32 17 59 C14.375 58.625 14.375 58.625 12 58 C12 58.66 12 59.32 12 60 C8.04 60 4.08 60 0 60 C0 59.34 0 58.68 0 58 C-0.763125 58.226875 -1.52625 58.45375 -2.3125 58.6875 C-3.6428125 58.8421875 -3.6428125 58.8421875 -5 59 C-6.5625 57.625 -6.5625 57.625 -8 56 C-10.10332891 55.28552357 -10.10332891 55.28552357 -12 55 C-12.33 53.68 -12.66 52.36 -13 51 C-14.32 51 -15.64 51 -17 51 C-17.103125 50.38125 -17.20625 49.7625 -17.3125 49.125 C-17.87525373 46.63473516 -17.87525373 46.63473516 -21 45 C-22.125 42.0625 -22.125 42.0625 -23 39 C-23.495 37.515 -23.495 37.515 -24 36 C-23.67 35.01 -23.34 34.02 -23 33 C-23.32550502 31.33178677 -23.65846063 29.66500443 -24 28 C-23.67 27.34 -23.34 26.68 -23 26 C-23.185625 25.34 -23.37125 24.68 -23.5625 24 C-23.706875 23.34 -23.85125 22.68 -24 22 C-23.34 21.34 -22.68 20.68 -22 20 C-21.67 18.989375 -21.34 17.97875 -21 16.9375 C-20 14 -20 14 -18 13 C-17.34786708 10.97536745 -17.34786708 10.97536745 -17 9 C-15.68 9 -14.36 9 -13 9 C-12.938125 8.38125 -12.87625 7.7625 -12.8125 7.125 C-12 5 -12 5 -9.5625 3.875 C-8.716875 3.58625 -7.87125 3.2975 -7 3 C-6.34 2.34 -5.68 1.68 -5 1 C-2.375 1.375 -2.375 1.375 0 2 C0 1.34 0 0.68 0 0 Z M-3 4 C-4.02019573 4.9793879 -5.02149805 5.97895449 -6 7 C-8.1875 7.6875 -8.1875 7.6875 -10 8 C-10 8.99 -10 9.98 -10 11 C-10.928125 11.12375 -10.928125 11.12375 -11.875 11.25 C-14.1765144 11.79994195 -14.1765144 11.79994195 -15.125 14 C-15.41375 14.66 -15.7025 15.32 -16 16 C-16.99 16.495 -16.99 16.495 -18 17 C-18.77163856 19.6780397 -19.43103205 22.2799339 -20 25 C-20.226875 26.0725 -20.45375 27.145 -20.6875 28.25 C-20.99930109 30.99384964 -20.71852392 32.38985187 -20 35 C-19.85820312 35.68320312 -19.71640625 36.36640625 -19.5703125 37.0703125 C-19.42335938 37.74835937 -19.27640625 38.42640625 -19.125 39.125 C-18.91230469 40.14980469 -18.91230469 40.14980469 -18.6953125 41.1953125 C-18.05215269 43.38194731 -18.05215269 43.38194731 -15 45 C-14.67 45.99 -14.34 46.98 -14 48 C-13.34 48 -12.68 48 -12 48 C-12 44.04 -12 40.08 -12 36 C-12.66 35.67 -13.32 35.34 -14 35 C-15.88186002 31.9681144 -16 30.75482645 -16 27 C-15.484375 26.525625 -14.96875 26.05125 -14.4375 25.5625 C-13.7259375 24.7890625 -13.7259375 24.7890625 -13 24 C-13.23043864 21.34533951 -13.23043864 21.34533951 -14 19 C-10.84150315 17.42075158 -7.4634872 17.85683486 -4 17.875 C-2.89398437 17.86919922 -2.89398437 17.86919922 -1.765625 17.86328125 C3.7466804 17.8733402 3.7466804 17.8733402 6 19 C7.88186002 22.0318856 8 23.24517355 8 27 C7.484375 27.474375 6.96875 27.94875 6.4375 28.4375 C5.963125 28.953125 5.48875 29.46875 5 30 C5.23043864 32.65466049 5.23043864 32.65466049 6 35 C5.01 35.495 5.01 35.495 4 36 C4.33 37.98 4.66 39.96 5 42 C7.39614126 42.05425226 9.79103853 42.09379027 12.1875 42.125 C12.86103516 42.14175781 13.53457031 42.15851562 14.22851562 42.17578125 C19.15671149 42.22386121 22.64456846 41.46199199 26.8125 38.875 C28.77980077 35.76873563 28.62851463 32.50273322 28 29 C25.83666939 25.75500409 24.55587463 25.12827876 20.75 24.25 C19.8425 24.1675 18.935 24.085 18 24 C17.67 24.66 17.34 25.32 17 26 C15.35 25.67 13.7 25.34 12 25 C12 23.68 12 22.36 12 21 C13.65 20.67 15.3 20.34 17 20 C17.495 20.99 17.495 20.99 18 22 C19.98900585 22.5394814 19.98900585 22.5394814 22.3125 22.875 C26.33059722 23.66838225 28.43454336 24.65375222 31 28 C32.25907782 23.71913541 31.80715362 21.06609565 30 17 C29.01 16.34 28.02 15.68 27 15 C26.505 13.515 26.505 13.515 26 12 C23.98491642 11.26676204 23.98491642 11.26676204 22 11 C22 10.01 22 9.02 22 8 C21.21625 7.71125 20.4325 7.4225 19.625 7.125 C17 6 17 6 15 4 C11.2396998 3.10079778 8.68632639 2.98308238 5 4 C1.65044556 2.88348185 0.32740404 3.00177879 -3 4 Z M-11 20 C-11 20.66 -11 21.32 -11 22 C-6.38 22 -1.76 22 3 22 C3 21.34 3 20.68 3 20 C-1.62 20 -6.24 20 -11 20 Z M4 24 C-2.435 24.495 -2.435 24.495 -9 25 C-9 25.33 -9 25.66 -9 26 C-4.38 26 0.24 26 5 26 C4.67 25.34 4.34 24.68 4 24 Z M-13 28 C-13 28.66 -13 29.32 -13 30 C-7.97874074 30.77916092 -4.02296004 31.13016601 1 30 C1 29.67 1 29.34 1 29 C-5.93 28.505 -5.93 28.505 -13 28 Z M31 28 C31.33 29.32 31.66 30.64 32 32 C32 30.68 32 29.36 32 28 C31.67 28 31.34 28 31 28 Z M2 32 C1.67 32.66 1.34 33.32 1 34 C1.66 34 2.32 34 3 34 C2.67 33.34 2.34 32.68 2 32 Z M31 35 C32 37 32 37 32 37 Z M-8 37 C-10.30662599 38.88659875 -10.30662599 38.88659875 -10.3125 42 C-10.209375 42.99 -10.10625 43.98 -10 45 C-8.515 45.99 -8.515 45.99 -7 47 C-7 46.01 -7 45.02 -7 44 C-6.01 43.67 -5.02 43.34 -4 43 C-4.99 43 -5.98 43 -7 43 C-7 41.02 -7 39.04 -7 37 C-7.33 37 -7.66 37 -8 37 Z M-1 37 C-1 37.99 -1 38.98 -1 40 C-1.99 40.33 -2.98 40.66 -4 41 C-3.01 41 -2.02 41 -1 41 C-1 42.98 -1 44.96 -1 47 C-0.01 46.34 0.98 45.68 2 45 C2.5 42 2.5 42 2 39 C1.01 38.34 0.02 37.68 -1 37 Z M29 40 C28.43611572 40.48807129 27.87223145 40.97614258 27.29125977 41.47900391 C24.67876702 43.21324256 23.43184031 43.35779348 20.33984375 43.3359375 C19.46392578 43.34882812 18.58800781 43.36171875 17.68554688 43.375 C15.84959275 43.375 14.01362229 43.3671539 12.17773438 43.3515625 C9.69566807 43.3954605 7.4247339 43.46296677 5 44 C2.91583097 46.33638681 2.91583097 46.33638681 2 49 C-0.52475462 50.26237731 -2.31200466 50.09856404 -5.125 50.0625 C-6.03507812 50.05347656 -6.94515625 50.04445313 -7.8828125 50.03515625 C-8.58148438 50.02355469 -9.28015625 50.01195312 -10 50 C-10 50.66 -10 51.32 -10 52 C-8.824375 52.433125 -8.824375 52.433125 -7.625 52.875 C-5 54 -5 54 -3 56 C0.7603002 56.89920222 3.31367361 57.01691762 7 56 C7.99 56.33 8.98 56.66 10 57 C13.86472966 56.61352703 15.37275344 55.74147467 18 53 C20.1875 52.3125 20.1875 52.3125 22 52 C22 51.01 22 50.02 22 49 C22.928125 48.87625 22.928125 48.87625 23.875 48.75 C26.1765144 48.20005805 26.1765144 48.20005805 27.125 46 C27.41375 45.34 27.7025 44.68 28 44 C28.66 43.67 29.32 43.34 30 43 C29.505 41.515 29.505 41.515 29 40 Z " fill="#000000" transform="translate(26,2)"/>
<path d="M0 0 C0.66 0 1.32 0 2 0 C2 0.66 2 1.32 2 2 C2.66 2 3.32 2 4 2 C4 2.66 4 3.32 4 4 C3.34 4 2.68 4 2 4 C2 4.66 2 5.32 2 6 C1.34 6 0.68 6 0 6 C0 5.34 0 4.68 0 4 C-0.66 4 -1.32 4 -2 4 C-2 3.34 -2 2.68 -2 2 C-1.34 2 -0.68 2 0 2 C0 1.34 0 0.68 0 0 Z " fill="#000000" transform="translate(31,8)"/>
<path d="M0 0 C0.99 0.33 1.98 0.66 3 1 C2.67 1.99 2.34 2.98 2 4 C1.01 3.67 0.02 3.34 -1 3 C-0.67 2.01 -0.34 1.02 0 0 Z " fill="#000000" transform="translate(23,13)"/>
</svg>
