<?xml version="1.0" encoding="UTF-8"?>
<svg version="1.1" xmlns="http://www.w3.org/2000/svg" width="64" height="64">
<path d="M0 0 C0 0.66 0 1.32 0 2 C-0.96099609 2.32871094 -0.96099609 2.32871094 -1.94140625 2.6640625 C-9.66018945 5.49389956 -15.48574061 8.65206589 -19.375 16.125 C-22.29284954 22.44277857 -23.12967583 28.8619483 -21.28125 35.6328125 C-18.10737432 44.20739599 -12.89792326 48.70405848 -5 53 C1.80431331 55.26810444 8.97561404 54.90760754 15.4375 51.8125 C22.48410633 47.78747846 27.33721709 42.40404446 29.75 34.5625 C30.66030881 25.23183475 29.16051605 17.8911609 23.5 10.1875 C19.40205294 5.70736098 13.60083542 3.96663639 8 2 C8.33 1.01 8.66 0.02 9 -1 C16.6143154 -0.52410529 22.0419045 2.63832015 27.25 8.1875 C32.89830998 15.36363153 34.702448 22.76397334 34.3828125 31.8203125 C33.43479303 39.69467831 30.15521648 46.87895957 24 52 C15.20142692 58.21968097 6.42141252 59.53041722 -4 58 C-13.64632192 55.07654035 -19.18197671 49.6746738 -24.0859375 41.1015625 C-27.52605522 33.6216735 -27.16563969 24.3192356 -24.4375 16.6875 C-20.64003318 8.53683952 -15.4103225 3.70516125 -7.4296875 -0.28515625 C-4.57349884 -1.12548185 -2.83401693 -0.80179482 0 0 Z " fill="#000000" transform="translate(28,6)"/>
<path d="M0 0 C3.76757943 1.37805158 6.97743564 3.08418292 10.3125 5.3125 C11.19550781 5.88613281 12.07851563 6.45976562 12.98828125 7.05078125 C13.98408203 8.01564453 13.98408203 8.01564453 15 9 C15 10.65 15 12.3 15 14 C8.73 14 2.46 14 -4 14 C-2.125 3.82142857 -2.125 3.82142857 0 0 Z " fill="#000000" transform="translate(10,20)"/>
<path d="M0 0 C5.19666421 1.3610311 8.2137251 3.30387451 12 7 C12 7.99 12 8.98 12 10 C9.94692089 11.74452386 7.96700813 13.24509298 5.75 14.75 C5.16347656 15.17410156 4.57695313 15.59820312 3.97265625 16.03515625 C-0.40796627 19.05729359 -0.40796627 19.05729359 -3.421875 18.765625 C-3.94265625 18.51296875 -4.4634375 18.2603125 -5 18 C-3.75971762 11.82777121 -2.10396411 5.93317878 0 0 Z " fill="#000000" transform="translate(40,10)"/>
<path d="M0 0 C2.39961141 5.11221561 3.15104776 8.05733434 4 14 C-2.27 14 -8.54 14 -15 14 C-15 12.35 -15 10.7 -15 9 C-12.87704246 7.11923903 -10.9899623 5.68680627 -8.625 4.1875 C-7.72007813 3.57745117 -7.72007813 3.57745117 -6.796875 2.95507812 C-2.32700893 0 -2.32700893 0 0 0 Z " fill="#000000" transform="translate(54,20)"/>
<path d="M0 0 C0.867242 2.41267325 1.71896936 4.82904469 2.5625 7.25 C2.80935547 7.93191406 3.05621094 8.61382812 3.31054688 9.31640625 C5.47053761 15.58342161 5.47053761 15.58342161 4 19 C0.04326153 18.38910214 -2.50716475 16.41059799 -5.6875 14.0625 C-6.66074219 13.35222656 -7.63398438 12.64195313 -8.63671875 11.91015625 C-11 10 -11 10 -12 8 C-4.43243243 0 -4.43243243 0 0 0 Z " fill="#000000" transform="translate(24,10)"/>
<path d="M0 0 C5.3762621 2.91214197 10.17918273 6.24351901 15 10 C13.27447059 13.75834487 11.4671343 15.66170012 8 18 C6.34352703 18.38077051 4.67677446 18.72194192 3 19 C2.10630575 16.58882492 1.23498234 14.1731794 0.375 11.75 C-0.00785156 10.72712891 -0.00785156 10.72712891 -0.3984375 9.68359375 C-2.19059227 4.55603983 -2.19059227 4.55603983 -1.1484375 1.515625 C-0.57996094 0.76539063 -0.57996094 0.76539063 0 0 Z " fill="#000000" transform="translate(37,39)"/>
<path d="M0 0 C0.99 0.66 1.98 1.32 3 2 C2.54619105 3.89692143 2.08675008 5.79249595 1.625 7.6875 C1.36976562 8.74324219 1.11453125 9.79898438 0.8515625 10.88671875 C0.08094511 13.70406766 -0.85498543 16.31668325 -2 19 C-7.35152885 18.67566492 -10.28280043 15.50295176 -14 12 C-12.64185223 7.9255567 -9.8691574 6.57978049 -6.4375 4.3125 C-5.82197266 3.89677734 -5.20644531 3.48105469 -4.57226562 3.05273438 C-3.05293329 2.02806838 -1.52707343 1.01309322 0 0 Z " fill="#000000" transform="translate(26,39)"/>
<path d="M0 0 C6.27 0 12.54 0 19 0 C17.125 10.17857143 17.125 10.17857143 15 14 C11.49383824 12.38048719 8.40973037 10.34015489 5.25 8.125 C4.26515625 7.44695313 3.2803125 6.76890625 2.265625 6.0703125 C1.51796875 5.38710938 0.7703125 4.70390625 0 4 C0 2.68 0 1.36 0 0 Z " fill="#000000" transform="translate(39,35)"/>
<path d="M0 0 C1.32 0 2.64 0 4 0 C4.83919398 2.26882087 5.67151724 4.53977027 6.5 6.8125 C6.73847656 7.45509766 6.97695313 8.09769531 7.22265625 8.75976562 C8.27068746 11.64933739 9 13.90076061 9 17 C6.51245214 18.24377393 4.77344699 18.13306235 2 18.125 C1.113125 18.12757812 0.22625 18.13015625 -0.6875 18.1328125 C-3 18 -3 18 -5 17 C-3.83348574 11.07136283 -2.24480642 5.61201606 0 0 Z " fill="#000000" transform="translate(30,42)"/>
<path d="M0 0 C6.27 0 12.54 0 19 0 C17.87571251 5.62143747 16.33763271 6.79023742 11.9375 9.8125 C11.36966797 10.21919922 10.80183594 10.62589844 10.21679688 11.04492188 C8.82011523 12.04255162 7.41120009 13.02301533 6 14 C1.14639293 9.77775645 0.97774977 6.19241524 0 0 Z " fill="#000000" transform="translate(6,35)"/>
<path d="M0 0 C2.4375 0.375 2.4375 0.375 5 1 C5.33 1.66 5.66 2.32 6 3 C6.66 3 7.32 3 8 3 C8.66 2.01 9.32 1.02 10 0 C11.32 0 12.64 0 14 0 C13.42934122 6.41991126 11.32655091 12.01589463 9 18 C7.68 18 6.36 18 5 18 C4.16112944 15.56427941 3.32873471 13.12666783 2.5 10.6875 C2.14228516 9.65206055 2.14228516 9.65206055 1.77734375 8.59570312 C0.76791737 5.61068511 0 3.17341086 0 0 Z " fill="#000000" transform="translate(25,9)"/>
<path d="M0 0 C1.8125 1.0625 1.8125 1.0625 3 3 C3.5 6.5 3.5 6.5 3 10 C0.875 12.0625 0.875 12.0625 -2 13 C-5.25 12.3125 -5.25 12.3125 -8 11 C-9.41441874 8.17116253 -9.31900332 6.12623255 -9 3 C-6.30254095 0.00282328 -3.95012118 -0.60771095 0 0 Z M-4 3 C-4.33 3.66 -4.66 4.32 -5 5 C-4.34 5 -3.68 5 -3 5 C-3.33 4.34 -3.66 3.68 -4 3 Z M-6 5 C-5 7 -5 7 -5 7 Z " fill="#000000" transform="translate(35,28)"/>
<path d="M0 0 C3.96 0 7.92 0 12 0 C10.68938409 4.23429756 9.05643741 8.07407404 7 12 C6.34 12 5.68 12 5 12 C4.16180842 10.37750059 3.3295884 8.75191503 2.5 7.125 C2.0359375 6.22007812 1.571875 5.31515625 1.09375 4.3828125 C0 2 0 2 0 0 Z " fill="#000000" transform="translate(26,0)"/>
<path d="M0 0 C1.13115234 0.01450195 1.13115234 0.01450195 2.28515625 0.02929688 C3.45111328 0.06700195 3.45111328 0.06700195 4.640625 0.10546875 C5.43339844 0.11900391 6.22617187 0.13253906 7.04296875 0.14648438 C8.99248064 0.18171652 10.94164126 0.23552054 12.890625 0.29296875 C12.890625 1.28296875 12.890625 2.27296875 12.890625 3.29296875 C5.960625 3.29296875 -0.969375 3.29296875 -8.109375 3.29296875 C-3.609375 -0.08203125 -3.609375 -0.08203125 0 0 Z " fill="#000000" transform="translate(51.109375,60.70703125)"/>
<path d="M0 0 C2.75059381 -0.08107646 5.49879021 -0.14052813 8.25 -0.1875 C9.02730469 -0.21263672 9.80460938 -0.23777344 10.60546875 -0.26367188 C11.35957031 -0.27333984 12.11367187 -0.28300781 12.890625 -0.29296875 C13.92751465 -0.31653442 13.92751465 -0.31653442 14.98535156 -0.34057617 C17 0 17 0 21 3 C14.07 3 7.14 3 0 3 C0 2.01 0 1.02 0 0 Z " fill="#000000" transform="translate(0,61)"/>
</svg>
