<?xml version="1.0" encoding="UTF-8"?>
<svg version="1.1" xmlns="http://www.w3.org/2000/svg" width="64" height="64">
<path d="M0 0 C0.91765137 -0.00315216 1.83530273 -0.00630432 2.78076172 -0.009552 C4.27760498 -0.00651566 4.27760498 -0.00651566 5.8046875 -0.00341797 C6.82191895 -0.00437469 7.83915039 -0.00533142 8.88720703 -0.00631714 C11.04264386 -0.00699908 13.19808272 -0.00514382 15.35351562 -0.00097656 C18.66541121 0.00437148 21.97717117 -0.0009211 25.2890625 -0.00732422 C27.37760447 -0.00666344 29.46614635 -0.00538228 31.5546875 -0.00341797 C32.55258301 -0.0054422 33.55047852 -0.00746643 34.57861328 -0.009552 C35.49626465 -0.00639984 36.41391602 -0.00324768 37.359375 0 C38.17132324 0.00079559 38.98327148 0.00159119 39.81982422 0.00241089 C41.6796875 0.12939453 41.6796875 0.12939453 42.6796875 1.12939453 C42.77889613 3.0570127 42.80768115 4.98828807 42.80908203 6.91845703 C42.81223419 8.15644043 42.81538635 9.39442383 42.81863403 10.66992188 C42.81684425 12.03141312 42.8147933 13.39290404 42.8125 14.75439453 C42.81317309 16.14062517 42.81414316 17.5268557 42.81539917 18.91308594 C42.8168759 21.82178875 42.8147224 24.7304609 42.81005859 27.63916016 C42.80436131 31.37536052 42.80764044 35.11148905 42.81363106 38.84768677 C42.81723735 41.71118719 42.81609777 44.57467046 42.81350327 47.43817139 C42.81283418 48.81614185 42.81366176 50.19411385 42.81598282 51.57208252 C42.81851042 53.49483207 42.81397774 55.41758705 42.80908203 57.34033203 C42.80828644 58.43651855 42.80749084 59.53270508 42.80667114 60.66210938 C42.6796875 63.12939453 42.6796875 63.12939453 41.6796875 64.12939453 C40.24228397 64.2275344 38.80012423 64.25737733 37.359375 64.25878906 C36.44172363 64.26194122 35.52407227 64.26509338 34.57861328 64.26834106 C33.58071777 64.26631683 32.58282227 64.2642926 31.5546875 64.26220703 C30.53745605 64.26316376 29.52022461 64.26412048 28.47216797 64.2651062 C26.31673114 64.26578814 24.16129228 64.26393288 22.00585938 64.25976562 C18.69396379 64.25441758 15.38220383 64.25971016 12.0703125 64.26611328 C9.98177053 64.2654525 7.89322865 64.26417135 5.8046875 64.26220703 C4.30784424 64.26524338 4.30784424 64.26524338 2.78076172 64.26834106 C1.86311035 64.2651889 0.94545898 64.26203674 0 64.25878906 C-0.81194824 64.25799347 -1.62389648 64.25719788 -2.46044922 64.25637817 C-4.3203125 64.12939453 -4.3203125 64.12939453 -5.3203125 63.12939453 C-5.41952113 61.20177636 -5.44830615 59.27050099 -5.44970703 57.34033203 C-5.45285919 56.10234863 -5.45601135 54.86436523 -5.45925903 53.58886719 C-5.45746925 52.22737594 -5.4554183 50.86588502 -5.453125 49.50439453 C-5.45379809 48.11816389 -5.45476816 46.73193336 -5.45602417 45.34570312 C-5.4575009 42.43700031 -5.4553474 39.52832816 -5.45068359 36.61962891 C-5.44498631 32.88342855 -5.44826544 29.14730002 -5.45425606 25.41110229 C-5.45786235 22.54760187 -5.45672277 19.6841186 -5.45412827 16.82061768 C-5.45345918 15.44264721 -5.45428676 14.06467521 -5.45660782 12.68670654 C-5.45913542 10.76395699 -5.45460274 8.84120201 -5.44970703 6.91845703 C-5.44891144 5.82227051 -5.44811584 4.72608398 -5.44729614 3.59667969 C-5.23430603 -0.54170636 -3.71180155 0.00363704 0 0 Z M-2.3203125 2.12939453 C-3.61177705 4.71232364 -3.44736956 6.57325696 -3.44970703 9.46533203 C-3.45285919 10.5798877 -3.45601135 11.69444336 -3.45925903 12.84277344 C-3.4572348 14.0511084 -3.45521057 15.25944336 -3.453125 16.50439453 C-3.45408173 17.7397998 -3.45503845 18.97520508 -3.45602417 20.24804688 C-3.45688054 23.53525537 -3.45284594 26.82241689 -3.44726562 30.10961914 C-3.44531453 32.12729394 -3.44725842 34.14492525 -3.45068359 36.16259766 C-3.45684242 40.02655067 -3.45611734 43.89043888 -3.453125 47.75439453 C-3.45514923 48.96272949 -3.45717346 50.17106445 -3.45925903 51.41601562 C-3.45610687 52.53057129 -3.45295471 53.64512695 -3.44970703 54.79345703 C-3.44891144 55.77781738 -3.44811584 56.76217773 -3.44729614 57.77636719 C-3.47586926 60.15025201 -3.47586926 60.15025201 -2.3203125 62.12939453 C11.5396875 62.12939453 25.3996875 62.12939453 39.6796875 62.12939453 C40.97115205 59.54646542 40.80674456 57.6855321 40.80908203 54.79345703 C40.81381027 53.12162354 40.81381027 53.12162354 40.81863403 51.41601562 C40.8166098 50.20768066 40.81458557 48.9993457 40.8125 47.75439453 C40.81345673 46.51898926 40.81441345 45.28358398 40.81539917 44.01074219 C40.81625554 40.72353369 40.81222094 37.43637217 40.80664062 34.14916992 C40.80468953 32.13149512 40.80663342 30.11386381 40.81005859 28.09619141 C40.81621742 24.2322384 40.81549234 20.36835018 40.8125 16.50439453 C40.81452423 15.29605957 40.81654846 14.08772461 40.81863403 12.84277344 C40.81548187 11.72821777 40.81232971 10.61366211 40.80908203 9.46533203 C40.80828644 8.48097168 40.80749084 7.49661133 40.80667114 6.48242188 C40.83524426 4.10853705 40.83524426 4.10853705 39.6796875 2.12939453 C25.8196875 2.12939453 11.9596875 2.12939453 -2.3203125 2.12939453 Z " fill="#0C0C0C" transform="translate(13.3203125,-0.12939453125)"/>
<path d="M0 0 C1.32 0 2.64 0 4 0 C4 0.66 4 1.32 4 2 C4.66 2 5.32 2 6 2 C5.8453125 3.2065625 5.8453125 3.2065625 5.6875 4.4375 C6.0654931 8.74662132 7.60362841 11.16565427 9.90625 14.75390625 C11 17 11 17 11 22 C4.73 22 -1.54 22 -8 22 C-6 13 -6 13 -4 11 C-4 10.34 -4 9.68 -4 9 C-3.34 9 -2.68 9 -2 9 C-2 6.69 -2 4.38 -2 2 C-1.34 2 -0.68 2 0 2 C0 1.34 0 0.68 0 0 Z M0 9 C0.66 9.66 1.32 10.32 2 11 C2.33 10.34 2.66 9.68 3 9 C2.01 9 1.02 9 0 9 Z " fill="#1A1A1A" transform="translate(31,21)"/>
<path d="M0 0 C0.79719955 0.00222061 1.59439911 0.00444122 2.41575623 0.00672913 C3.31661453 0.00680466 4.21747284 0.00688019 5.14562988 0.00695801 C6.12478867 0.01211929 7.10394745 0.01728058 8.11277771 0.02259827 C9.11018478 0.02401321 10.10759186 0.02542816 11.13522339 0.02688599 C14.3348027 0.03250337 17.53431315 0.04505881 20.73387146 0.05775452 C22.89728191 0.06276728 25.06069345 0.06733057 27.22410583 0.07142639 C32.53988471 0.08247845 37.85562317 0.09923348 43.17137146 0.12025452 C42.84137146 0.78025452 42.51137146 1.44025452 42.17137146 2.12025452 C28.31137146 2.12025452 14.45137146 2.12025452 0.17137146 2.12025452 C0.17137146 22.25025452 0.17137146 42.38025452 0.17137146 63.12025452 C-0.81862854 63.12025452 -1.80862854 63.12025452 -2.82862854 63.12025452 C-2.85175591 55.05373278 -2.86954563 46.98722479 -2.88044071 38.92067814 C-2.88566868 35.17542414 -2.89276476 31.43019276 -2.90406799 27.68495178 C-2.91489995 24.07343764 -2.92090603 20.46194531 -2.92350578 16.85041618 C-2.92535948 15.46965122 -2.92897903 14.08888751 -2.9343586 12.70813179 C-2.94157301 10.78049499 -2.94203663 8.85283645 -2.94215393 6.92518616 C-2.94437454 5.82598343 -2.94659515 4.7267807 -2.94888306 3.5942688 C-2.78307238 0.18302078 -2.78307238 0.18302078 0 0 Z " fill="#2C2C2C" transform="translate(10.828628540039063,-0.1202545166015625)"/>
<path d="M0 0 C0.33 0 0.66 0 1 0 C1.33 15.51 1.66 31.02 2 47 C1.01 47 0.02 47 -1 47 C-1.02527002 40.46721214 -1.04283292 33.93443679 -1.05493164 27.40161133 C-1.05997317 25.17732268 -1.06680623 22.95303737 -1.07543945 20.72875977 C-1.08751298 17.53921691 -1.09322996 14.34971771 -1.09765625 11.16015625 C-1.10281754 10.15912369 -1.10797882 9.15809113 -1.11329651 8.12672424 C-1.11337204 7.20584518 -1.11344757 6.28496613 -1.11352539 5.33618164 C-1.115746 4.52121719 -1.11796661 3.70625275 -1.12025452 2.86659241 C-1 1 -1 1 0 0 Z " fill="#242424" transform="translate(9,16)"/>
<path d="M0 0 C0.99 0 1.98 0 3 0 C3 0.66 3 1.32 3 2 C3.66 2 4.32 2 5 2 C4.49396008 4.16874252 4.00016187 5.99967627 3 8 C2.01 8 1.02 8 0 8 C-1.125 5.6875 -1.125 5.6875 -2 3 C-1.34 2.01 -0.68 1.02 0 0 Z " fill="#0C0C0C" transform="translate(46,41)"/>
<path d="M0 0 C2.0625 0.4375 2.0625 0.4375 4 1 C4 3.31 4 5.62 4 8 C2.35 7.67 0.7 7.34 -1 7 C-1.04254356 5.00045254 -1.04080783 2.99958364 -1 1 C-0.67 0.67 -0.34 0.34 0 0 Z M1 2 C2 4 2 4 2 4 Z " fill="#313131" transform="translate(16,6)"/>
<path d="M0 0 C0.99 0 1.98 0 3 0 C5 3 5 3 5 6 C4.34 6 3.68 6 3 6 C3 6.66 3 7.32 3 8 C2.01 7.67 1.02 7.34 0 7 C-1.125 2.25 -1.125 2.25 0 0 Z " fill="#2C2C2C" transform="translate(16,15)"/>
<path d="M0 0 C1.65 0 3.3 0 5 0 C5.93065133 2.60582371 6.14917407 3.64198224 5.0625 6.25 C4.5365625 7.11625 4.5365625 7.11625 4 8 C3.01 8 2.02 8 1 8 C0.67 5.36 0.34 2.72 0 0 Z M2 3 C3 6 3 6 3 6 Z " fill="#070707" transform="translate(45,50)"/>
<path d="M0 0 C0.66 0.33 1.32 0.66 2 1 C2 3.64 2 6.28 2 9 C1.01 9.495 1.01 9.495 0 10 C-0.19412181 8.52168779 -0.38012131 7.04230684 -0.5625 5.5625 C-0.66691406 4.73878906 -0.77132812 3.91507812 -0.87890625 3.06640625 C-0.91886719 2.38449219 -0.95882812 1.70257812 -1 1 C-0.67 0.67 -0.34 0.34 0 0 Z " fill="#191919" transform="translate(54,0)"/>
</svg>
