<?xml version="1.0" encoding="UTF-8"?>
<svg version="1.1" xmlns="http://www.w3.org/2000/svg" width="60" height="60">
<path d="M0 0 C1.65 0 3.3 0 5 0 C4.67 6.27 4.34 12.54 4 19 C3.01 19.33 2.02 19.66 1 20 C0.855625 21.093125 0.71125 22.18625 0.5625 23.3125 C0 27 0 27 -1 30 C-16.51 30 -32.02 30 -48 30 C-51.39905827 22.06886404 -51.39905827 22.06886404 -51.3125 18.5 C-51.30863281 17.8090625 -51.30476563 17.118125 -51.30078125 16.40625 C-50.90041575 13.20332598 -49.88675856 10.10365496 -49 7 C-33.16 7 -17.32 7 -1 7 C-0.505 7.99 -0.505 7.99 0 9 C-0.185625 7.700625 -0.37125 6.40125 -0.5625 5.0625 C-0.87890625 2.84765625 -0.87890625 2.84765625 -1 1 C-0.67 0.67 -0.34 0.34 0 0 Z M-43 10 C-43 10.33 -43 10.66 -43 11 C-40.03 11 -37.06 11 -34 11 C-34 10.67 -34 10.34 -34 10 C-36.97 10 -39.94 10 -43 10 Z M-29 10 C-29 10.33 -29 10.66 -29 11 C-25.37 11 -21.74 11 -18 11 C-18 10.67 -18 10.34 -18 10 C-21.63 10 -25.26 10 -29 10 Z M-13 10 C-13 10.33 -13 10.66 -13 11 C-9.7 11 -6.4 11 -3 11 C-3 10.67 -3 10.34 -3 10 C-6.3 10 -9.6 10 -13 10 Z M-48 13 C-48.02736707 14.39572052 -48.04655989 15.79160221 -48.0625 17.1875 C-48.07410156 17.96480469 -48.08570313 18.74210937 -48.09765625 19.54296875 C-48.04662335 22.44729619 -48.04662335 22.44729619 -47 27 C-42.71 27 -38.42 27 -34 27 C-34 23.04 -34 19.08 -34 15 C-37.20079729 18.16491913 -37.20079729 18.16491913 -37.6875 22.1875 C-37.8421875 24.0746875 -37.8421875 24.0746875 -38 26 C-39.98 26 -41.96 26 -44 26 C-43.67 23.03 -43.34 20.06 -43 17 C-44.32 17 -45.64 17 -47 17 C-47.33 15.68 -47.66 14.36 -48 13 Z M-20 15 C-21.80230168 18.82989106 -22.19622241 21.78121808 -22 26 C-24.31 25.67 -26.62 25.34 -29 25 C-28.34 22.36 -27.68 19.72 -27 17 C-28.32 17 -29.64 17 -31 17 C-31 20.3 -31 23.6 -31 27 C-26.71 27 -22.42 27 -18 27 C-18.33 23.04 -18.66 19.08 -19 15 C-19.33 15 -19.66 15 -20 15 Z M-3 13 C-5.83067342 16.89217595 -6.53439347 20.25081338 -7 25 C-8.98 25.33 -10.96 25.66 -13 26 C-12.34 23.03 -11.68 20.06 -11 17 C-12.65 17 -14.3 17 -16 17 C-16 20.3 -16 23.6 -16 27 C-11.71 27 -7.42 27 -3 27 C-2.27562166 23.37810828 -1.88414407 20.76234736 -1.9375 17.1875 C-1.94652344 16.39730469 -1.95554687 15.60710938 -1.96484375 14.79296875 C-1.97644531 14.20128906 -1.98804688 13.60960937 -2 13 C-2.33 13 -2.66 13 -3 13 Z M-41 20 C-40 23 -40 23 -40 23 Z M-10 20 C-9 23 -9 23 -9 23 Z " fill="#000000" transform="translate(53,13)"/>
<path d="M0 0 C2 3.875 2 3.875 2 5 C-13.84 5 -29.68 5 -46 5 C-46 4.67 -46 4.34 -46 4 C-30.82 4 -15.64 4 0 4 C0 2.68 0 1.36 0 0 Z " fill="#000000" transform="translate(50,14)"/>
<path d="M0 0 C0.33 0 0.66 0 1 0 C1 4.62 1 9.24 1 14 C0.67 14 0.34 14 0 14 C0 9.38 0 4.76 0 0 Z " fill="#000000" transform="translate(58,18)"/>
<path d="M0 0 C0.33 0 0.66 0 1 0 C0.67 3.3 0.34 6.6 0 10 C-0.66 9.67 -1.32 9.34 -2 9 C-1.34 6.03 -0.68 3.06 0 0 Z " fill="#000000" transform="translate(49,29)"/>
<path d="M0 0 C3.96 0 7.92 0 12 0 C12 0.33 12 0.66 12 1 C8.04 1 4.08 1 0 1 C0 0.67 0 0.34 0 0 Z " fill="#000000" transform="translate(22,44)"/>
<path d="M0 0 C0.99 0.33 1.98 0.66 3 1 C2.67 3.31 2.34 5.62 2 8 C1.67 8 1.34 8 1 8 C0.67 5.36 0.34 2.72 0 0 Z " fill="#000000" transform="translate(6,31)"/>
<path d="M0 0 C3.3 0 6.6 0 10 0 C10 0.33 10 0.66 10 1 C6.7 1 3.4 1 0 1 C0 0.67 0 0.34 0 0 Z " fill="#000000" transform="translate(38,44)"/>
<path d="M0 0 C3.3 0 6.6 0 10 0 C10 0.33 10 0.66 10 1 C6.7 1 3.4 1 0 1 C0 0.67 0 0.34 0 0 Z " fill="#000000" transform="translate(8,44)"/>
<path d="M0 0 C0.33 0 0.66 0 1 0 C1 2.64 1 5.28 1 8 C0.34 8 -0.32 8 -1 8 C-0.67 5.36 -0.34 2.72 0 0 Z " fill="#000000" transform="translate(17,31)"/>
<path d="M0 0 C0.33 0 0.66 0 1 0 C1 2.31 1 4.62 1 7 C0.67 7 0.34 7 0 7 C0 4.69 0 2.38 0 0 Z " fill="#000000" transform="translate(0,28)"/>
<path d="M0 0 C0.33 0 0.66 0 1 0 C1 1.98 1 3.96 1 6 C0.67 6 0.34 6 0 6 C0 4.02 0 2.04 0 0 Z " fill="#000000" transform="translate(38,33)"/>
<path d="M0 0 C0.33 0 0.66 0 1 0 C1 1.98 1 3.96 1 6 C0.67 6 0.34 6 0 6 C0 4.02 0 2.04 0 0 Z " fill="#000000" transform="translate(32,33)"/>
<path d="M0 0 C4 1 4 1 4 1 Z " fill="#000000" transform="translate(53,11)"/>
<path d="" fill="#000000" transform="translate(0,0)"/>
<path d="" fill="#000000" transform="translate(0,0)"/>
<path d="" fill="#000000" transform="translate(0,0)"/>
<path d="M0 0 C0.66 0 1.32 0 2 0 C1.67 0.66 1.34 1.32 1 2 C0.67 1.34 0.34 0.68 0 0 Z " fill="#000000" transform="translate(38,31)"/>
<path d="" fill="#000000" transform="translate(0,0)"/>
<path d="M0 0 C2 1 2 1 2 1 Z " fill="#000000" transform="translate(35,44)"/>
<path d="M0 0 C2 1 2 1 2 1 Z " fill="#000000" transform="translate(19,44)"/>
<path d="" fill="#000000" transform="translate(0,0)"/>
<path d="" fill="#000000" transform="translate(0,0)"/>
<path d="" fill="#000000" transform="translate(0,0)"/>
<path d="" fill="#000000" transform="translate(0,0)"/>
<path d="" fill="#000000" transform="translate(0,0)"/>
<path d="" fill="#000000" transform="translate(0,0)"/>
<path d="" fill="#000000" transform="translate(0,0)"/>
<path d="" fill="#000000" transform="translate(0,0)"/>
<path d="" fill="#000000" transform="translate(0,0)"/>
<path d="" fill="#000000" transform="translate(0,0)"/>
<path d="" fill="#000000" transform="translate(0,0)"/>
</svg>
