<?xml version="1.0" encoding="UTF-8"?>
<svg version="1.1" xmlns="http://www.w3.org/2000/svg" width="64" height="64">
<path d="M0 0 C0.99 0 1.98 0 3 0 C3 1.32 3 2.64 3 4 C3.80824219 3.96519531 4.61648437 3.93039062 5.44921875 3.89453125 C6.51785156 3.86746094 7.58648437 3.84039062 8.6875 3.8125 C9.74324219 3.77769531 10.79898438 3.74289062 11.88671875 3.70703125 C15.61283218 4.05766928 17.16789038 4.53330484 20 7 C20.75158604 9.96949898 20.65254558 12.8890866 20.59375 15.9375 C20.59379028 16.81398193 20.59383057 17.69046387 20.59387207 18.59350586 C20.58851174 20.44619926 20.570907 22.29889168 20.54199219 24.15136719 C20.50015275 26.98963793 20.50092048 29.8255356 20.5078125 32.6640625 C20.49731958 34.46355818 20.48438092 36.26304161 20.46875 38.0625 C20.46844788 39.33758423 20.46844788 39.33758423 20.46813965 40.63842773 C20.34876377 46.5721644 20.34876377 46.5721644 18.59257507 48.72651672 C16.58375876 50.33284224 15.53485693 50.35041031 12.98828125 50.29296875 C12.23095703 50.28330078 11.47363281 50.27363281 10.69335938 50.26367188 C9.90767578 50.23853516 9.12199219 50.21339844 8.3125 50.1875 C7.11657227 50.16719727 7.11657227 50.16719727 5.89648438 50.14648438 C3.93070033 50.11117089 1.96526418 50.05736447 0 50 C1.26946514 54.82442184 1.26946514 54.82442184 5 58 C5 58.66 5 59.32 5 60 C-6.22 60 -17.44 60 -29 60 C-29 59.34 -29 58.68 -29 58 C-28.360625 57.566875 -27.72125 57.13375 -27.0625 56.6875 C-24.47697775 54.5720727 -24.49785031 53.21244461 -24 50 C-25.19238281 50.03480469 -26.38476562 50.06960937 -27.61328125 50.10546875 C-29.17967342 50.13360753 -30.74608081 50.1609076 -32.3125 50.1875 C-33.49102539 50.22520508 -33.49102539 50.22520508 -34.69335938 50.26367188 C-35.45068359 50.27333984 -36.20800781 50.28300781 -36.98828125 50.29296875 C-37.68477783 50.3086792 -38.38127441 50.32438965 -39.09887695 50.34057617 C-41.62679045 49.8877138 -42.39165842 48.97298526 -44 47 C-44.32279665 43.95219905 -44.46802719 41.1130443 -44.46875 38.0625 C-44.47636353 37.18601807 -44.48397705 36.30953613 -44.49182129 35.40649414 C-44.50262381 33.55390268 -44.50547477 31.70125031 -44.50097656 29.84863281 C-44.50000344 27.01003913 -44.54163671 24.17414123 -44.5859375 21.3359375 C-44.59114385 19.53646398 -44.5938327 17.73698105 -44.59375 15.9375 C-44.61014526 15.08744385 -44.62654053 14.2373877 -44.64343262 13.36157227 C-44.61720461 11.13230501 -44.54035777 9.16280766 -44 7 C-40.99015088 4.28779588 -38.29506791 3.61668572 -34.3125 3.41796875 C-33.44882812 3.37349609 -32.58515625 3.32902344 -31.6953125 3.28320312 C-30.80585938 3.25162109 -29.91640625 3.22003906 -29 3.1875 C-28.11054688 3.13658203 -27.22109375 3.08566406 -26.3046875 3.03320312 C-21.72782537 2.83168457 -18.14891295 2.76131572 -14 5 C-14 5.66 -14 6.32 -14 7 C-14.99 7.33 -15.98 7.66 -17 8 C-16.98839844 9.07121094 -16.97679688 10.14242188 -16.96484375 11.24609375 C-16.95546701 12.64322743 -16.94636669 14.04036299 -16.9375 15.4375 C-16.92912109 16.14455078 -16.92074219 16.85160156 -16.91210938 17.58007812 C-16.90346412 19.38693559 -16.94779989 21.19387603 -17 23 C-17.33 23.33 -17.66 23.66 -18 24 C-18.23192865 25.51469448 -18.41215238 27.03754562 -18.5625 28.5625 C-18.64628906 29.38878906 -18.73007812 30.21507813 -18.81640625 31.06640625 C-18.90728516 32.02353516 -18.90728516 32.02353516 -19 33 C-19.99 33 -20.98 33 -22 33 C-22.06058594 32.36191406 -22.12117188 31.72382812 -22.18359375 31.06640625 C-22.30927734 29.82697266 -22.30927734 29.82697266 -22.4375 28.5625 C-22.51871094 27.73878906 -22.59992187 26.91507813 -22.68359375 26.06640625 C-22.78930815 24.01337975 -22.78930815 24.01337975 -24 23 C-24.07313567 20.46950598 -24.09247527 17.96695163 -24.0625 15.4375 C-24.05798828 14.72658203 -24.05347656 14.01566406 -24.04882812 13.28320312 C-24.03700864 11.52209987 -24.01907263 9.76103964 -24 8 C-26.45898655 7.91923037 -28.91533742 7.85962857 -31.375 7.8125 C-32.07367188 7.78736328 -32.77234375 7.76222656 -33.4921875 7.73632812 C-35.76747677 7.67021439 -35.76747677 7.67021439 -39 8 C-41.45378929 11.68068393 -41.30646214 13.68053719 -41.4140625 18.07421875 C-41.44967285 19.32549561 -41.4852832 20.57677246 -41.52197266 21.8659668 C-41.55597168 23.45707275 -41.5899707 25.04817871 -41.625 26.6875 C-41.74875 31.740625 -41.8725 36.79375 -42 42 C-22.2 42 -2.4 42 18 42 C17.87625 36.946875 17.7525 31.89375 17.625 26.6875 C17.59100098 25.09639404 17.55700195 23.50528809 17.52197266 21.8659668 C17.4863623 20.61468994 17.45075195 19.36341309 17.4140625 18.07421875 C17.3826416 16.79119873 17.3512207 15.50817871 17.31884766 14.1862793 C17.23620772 10.84612541 17.23620772 10.84612541 15 8 C12.11404054 7.41518879 12.11404054 7.41518879 8.875 7.3125 C7.77929688 7.24675781 6.68359375 7.18101563 5.5546875 7.11328125 C4.29011719 7.05720703 4.29011719 7.05720703 3 7 C3.49113281 7.75023437 3.49113281 7.75023437 3.9921875 8.515625 C5.3723642 11.91792104 5.21362838 15.14350651 5.125 18.75 C5.11597656 19.44738281 5.10695312 20.14476563 5.09765625 20.86328125 C5.07419888 22.57566958 5.03833104 24.28788004 5 26 C4.34 26 3.68 26 3 26 C3 28.64 3 31.28 3 34 C2.01 34 1.02 34 0 34 C0 31.36 0 28.72 0 26 C-0.66 26 -1.32 26 -2 26 C-2.05411124 23.58303128 -2.09372278 21.16728213 -2.125 18.75 C-2.14175781 18.06808594 -2.15851562 17.38617187 -2.17578125 16.68359375 C-2.21213482 12.9391765 -2.07944349 10.17647273 0 7 C-1.65 7 -3.3 7 -5 7 C-4.67 6.01 -4.34 5.02 -4 4 C-2.68 4 -1.36 4 0 4 C0 2.68 0 1.36 0 0 Z M-22 11 C-22 14.3 -22 17.6 -22 21 C-21.34 21 -20.68 21 -20 21 C-20 17.7 -20 14.4 -20 11 C-20.66 11 -21.32 11 -22 11 Z M0 13 C0 16.3 0 19.6 0 23 C0.99 23 1.98 23 3 23 C3 19.7 3 16.4 3 13 C2.01 13 1.02 13 0 13 Z M-41 45 C-38.33597236 48.28953385 -38.33597236 48.28953385 -34.90551758 48.34057617 C-33.66439209 48.32486572 -32.4232666 48.30915527 -31.14453125 48.29296875 C-30.15207649 48.28660149 -30.15207649 48.28660149 -29.13957214 48.28010559 C-27.0301309 48.26333693 -24.92165154 48.22569099 -22.8125 48.1875 C-21.38087319 48.17245068 -19.94923138 48.1587627 -18.51757812 48.14648438 C-15.01140712 48.1134403 -11.50579746 48.06167167 -8 48 C-8 48.66 -8 49.32 -8 50 C-12.29 50 -16.58 50 -21 50 C-21 51.32 -21 52.64 -21 54 C-20.01 54 -19.02 54 -18 54 C-18 54.66 -18 55.32 -18 56 C-19.65 56.33 -21.3 56.66 -23 57 C-23 57.33 -23 57.66 -23 58 C-15.74 58 -8.48 58 -1 58 C-1.495 57.01 -1.495 57.01 -2 56 C-3.32 56 -4.64 56 -6 56 C-6 55.34 -6 54.68 -6 54 C-5.01 54 -4.02 54 -3 54 C-3 52.68 -3 51.36 -3 50 C-3.99 50 -4.98 50 -6 50 C-6 49.34 -6 48.68 -6 48 C-5.40985107 48.01571045 -4.81970215 48.0314209 -4.21166992 48.04760742 C-1.53704414 48.10997939 1.13742864 48.14899657 3.8125 48.1875 C5.2056543 48.22520508 5.2056543 48.22520508 6.62695312 48.26367188 C7.51962891 48.27333984 8.41230469 48.28300781 9.33203125 48.29296875 C10.15421143 48.3086792 10.9763916 48.32438965 11.82348633 48.34057617 C14.43897981 48.15030959 14.43897981 48.15030959 17 45 C-2.14 45 -21.28 45 -41 45 Z " fill="#000000" transform="translate(44,4)"/>
<path d="M0 0 C0.99 0 1.98 0 3 0 C3 1.32 3 2.64 3 4 C3.66 4 4.32 4 5 4 C5 7.3 5 10.6 5 14 C4.34 14 3.68 14 3 14 C3 11.69 3 9.38 3 7 C2.01 7 1.02 7 0 7 C0 12.28 0 17.56 0 23 C0.99 23 1.98 23 3 23 C3 20.36 3 17.72 3 15 C3.66 15 4.32 15 5 15 C5 18.63 5 22.26 5 26 C4.34 26 3.68 26 3 26 C3.33 27.65 3.66 29.3 4 31 C5.65 30.67 7.3 30.34 9 30 C9 30.99 9 31.98 9 33 C5.92725154 34.70733046 2.84034212 36.38725648 -0.25 38.0625 C-1.12269531 38.54783203 -1.99539062 39.03316406 -2.89453125 39.53320312 C-3.73886719 39.98759766 -4.58320313 40.44199219 -5.453125 40.91015625 C-6.22817383 41.33433838 -7.00322266 41.75852051 -7.80175781 42.19555664 C-10.40739486 43.14908553 -11.40838382 42.83136421 -14 42 C-18.46564103 42 -20.95365986 43.2343243 -25 45 C-25.99 45 -26.98 45 -28 45 C-28 44.01 -28 43.02 -28 42 C-26.02 41.01 -24.04 40.02 -22 39 C-22 37.02 -22 35.04 -22 33 C-22.66 33 -23.32 33 -24 33 C-24.33 31.35 -24.66 29.7 -25 28 C-24.01 27.67 -23.02 27.34 -22 27 C-22 27.99 -22 28.98 -22 30 C-21.34 30 -20.68 30 -20 30 C-20 26.7 -20 23.4 -20 20 C-20.66 20 -21.32 20 -22 20 C-22 21.98 -22 23.96 -22 26 C-22.99 25.67 -23.98 25.34 -25 25 C-25.125 19.25 -25.125 19.25 -24 17 C-23.34 17 -22.68 17 -22 17 C-22 16.34 -22 15.68 -22 15 C-21.01 15 -20.02 15 -19 15 C-16.57042157 18.64436764 -16.73154111 20.47927548 -16.75 24.8125 C-16.74484375 26.01519531 -16.7396875 27.21789062 -16.734375 28.45703125 C-16.99728701 31.96381355 -17.73892402 34.73221185 -19 38 C-15.535 37.505 -15.535 37.505 -12 37 C-12 37.66 -12 38.32 -12 39 C-8.04 37.02 -4.08 35.04 0 33 C0 30.69 0 28.38 0 26 C-0.66 26 -1.32 26 -2 26 C-2 18.74 -2 11.48 -2 4 C-1.34 4 -0.68 4 0 4 C0 2.68 0 1.36 0 0 Z " fill="#000000" transform="translate(33,0)"/>
<path d="M0 0 C2.4375 0.375 2.4375 0.375 5 1 C5.33 1.66 5.66 2.32 6 3 C5.67 3.99 5.34 4.98 5 6 C2.36 6.33 -0.28 6.66 -3 7 C-3.33 6.01 -3.66 5.02 -4 4 C-2.68 3.67 -1.36 3.34 0 3 C0 2.01 0 1.02 0 0 Z " fill="#000000" transform="translate(54,20)"/>
</svg>
