<?xml version="1.0" encoding="UTF-8"?>
<svg version="1.1" xmlns="http://www.w3.org/2000/svg" width="64" height="64">
<path d="M0 0 C0.72815918 -0.0038269 1.45631836 -0.00765381 2.20654297 -0.01159668 C3.73601679 -0.01430154 5.265538 -0.00704079 6.79492188 0.00976562 C9.11955098 0.03119976 11.44109059 0.00991933 13.765625 -0.015625 C15.2604234 -0.01298147 16.7552199 -0.00785595 18.25 0 C18.93562012 -0.00809692 19.62124023 -0.01619385 20.32763672 -0.02453613 C25.73870321 0.07921686 28.76155246 1.55126883 33.125 4.53125 C37.07977436 9.50006907 37.77231807 13.56689921 37.50390625 19.87890625 C36.90117955 24.09799318 35.80380901 26.16556689 33.125 29.53125 C28.11566885 32.95233215 24.35720606 34.13462388 18.25 34.0625 C17.15776123 34.06824036 17.15776123 34.06824036 16.04345703 34.07409668 C14.51398321 34.07680154 12.984462 34.06954079 11.45507812 34.05273438 C9.13044902 34.03130024 6.80890941 34.05258067 4.484375 34.078125 C2.9895766 34.07548147 1.4947801 34.07035595 0 34.0625 C-0.68562012 34.07059692 -1.37124023 34.07869385 -2.07763672 34.08703613 C-7.48870321 33.98328314 -10.51155246 32.51123117 -14.875 29.53125 C-18.82977436 24.56243093 -19.52231807 20.49560079 -19.25390625 14.18359375 C-18.65117955 9.96450682 -17.55380901 7.89693311 -14.875 4.53125 C-9.86566885 1.11016785 -6.10720606 -0.07212388 0 0 Z M-9.875 4.53125 C-10.54617848 7.47488898 -10.54617848 7.47488898 -10.875 10.53125 C-11.535 11.52125 -12.195 12.51125 -12.875 13.53125 C-13.37651279 18.8472856 -12.43963361 21.9149095 -9.875 26.53125 C-9.71 27.294375 -9.545 28.0575 -9.375 28.84375 C-9.21 29.400625 -9.045 29.9575 -8.875 30.53125 C-5.31454823 31.71806726 -2.43691663 31.62814832 1.3125 31.59375 C2.58480469 31.58472656 3.85710938 31.57570313 5.16796875 31.56640625 C6.14378906 31.55480469 7.11960937 31.54320313 8.125 31.53125 C8.125 30.87125 8.125 30.21125 8.125 29.53125 C2.845 29.53125 -2.435 29.53125 -7.875 29.53125 C-7.875 28.54125 -7.875 27.55125 -7.875 26.53125 C-7.215 26.86125 -6.555 27.19125 -5.875 27.53125 C-3.4509283 27.79730665 -1.05673109 28.00486921 1.375 28.15625 C2.08285645 28.20056152 2.79071289 28.24487305 3.52001953 28.29052734 C15.1563655 29.17073885 15.1563655 29.17073885 26.125 26.53125 C26.125 27.52125 26.125 28.51125 26.125 29.53125 C20.845 29.53125 15.565 29.53125 10.125 29.53125 C10.125 30.19125 10.125 30.85125 10.125 31.53125 C12.37473447 31.585388 14.62484383 31.62410491 16.875 31.65625 C18.75445312 31.69105469 18.75445312 31.69105469 20.671875 31.7265625 C23.85231257 31.5466735 25.58957612 31.41096081 28.125 29.53125 C28.79617848 26.58761102 28.79617848 26.58761102 29.125 23.53125 C29.785 22.54125 30.445 21.55125 31.125 20.53125 C31.60226993 15.3767348 30.92982082 12.79457765 28.125 8.53125 C27.4375 5.71875 27.4375 5.71875 27.125 3.53125 C23.56454823 2.34443274 20.68691663 2.43435168 16.9375 2.46875 C15.66519531 2.47777344 14.39289062 2.48679687 13.08203125 2.49609375 C12.10621094 2.50769531 11.13039063 2.51929687 10.125 2.53125 C10.125 3.19125 10.125 3.85125 10.125 4.53125 C11.73181641 4.60472656 11.73181641 4.60472656 13.37109375 4.6796875 C14.76825639 4.75470294 16.1653905 4.8302513 17.5625 4.90625 C18.26955078 4.9371875 18.97660156 4.968125 19.70507812 5 C21.51739188 5.10405629 23.32317988 5.31044892 25.125 5.53125 C25.62 6.52125 25.62 6.52125 26.125 7.53125 C25.465 7.20125 24.805 6.87125 24.125 6.53125 C21.7009283 6.26519335 19.30673109 6.05763079 16.875 5.90625 C16.16714355 5.86193848 15.45928711 5.81762695 14.72998047 5.77197266 C3.0936345 4.89176115 3.0936345 4.89176115 -7.875 7.53125 C-7.545 6.87125 -7.215 6.21125 -6.875 5.53125 C-4.32558627 5.21883629 -1.87138487 5.01821579 0.6875 4.90625 C1.39841797 4.86757813 2.10933594 4.82890625 2.84179688 4.7890625 C4.60242425 4.69453217 6.36367728 4.61179183 8.125 4.53125 C8.125 3.87125 8.125 3.21125 8.125 2.53125 C5.87526553 2.477112 3.62515617 2.43839509 1.375 2.40625 C-0.50445313 2.37144531 -0.50445313 2.37144531 -2.421875 2.3359375 C-5.60231257 2.5158265 -7.33957612 2.65153919 -9.875 4.53125 Z M-12.875 6.53125 C-16.43789381 10.74194269 -17.50556667 13.81604567 -17.28125 19.33984375 C-16.63815668 22.80883752 -15.09552995 24.82497912 -12.875 27.53125 C-12.6513932 24.6057856 -12.6513932 24.6057856 -13.875 22.53125 C-13.99740135 20.76354673 -14.05051153 18.99064538 -14.0625 17.21875 C-14.07667969 16.27386719 -14.09085938 15.32898437 -14.10546875 14.35546875 C-13.86324335 11.38718118 -13.11526607 9.22257835 -11.875 6.53125 C-12.205 6.53125 -12.535 6.53125 -12.875 6.53125 Z M30.125 6.53125 C30.44984375 7.2428125 30.7746875 7.954375 31.109375 8.6875 C32.17487753 11.67090709 32.39271461 13.87804951 32.375 17.03125 C32.38015625 17.9490625 32.3853125 18.866875 32.390625 19.8125 C32.10762598 22.7090782 31.32850245 24.89500653 30.125 27.53125 C34.34433826 23.46185541 34.34433826 23.46185541 35.375 17.78125 C35.33082665 13.73938871 34.31205533 10.98006802 32.125 7.53125 C31.465 7.20125 30.805 6.87125 30.125 6.53125 Z " fill="#000000" transform="translate(22.875,26.46875)"/>
<path d="M0 0 C7.26325581 -0.3572093 7.26325581 -0.3572093 10.0625 1 C11.628408 4.34060373 10.94337961 7.51675223 10 11 C8.75 13 8.75 13 7 14 C4.5 14.4375 4.5 14.4375 2 14 C-1.08796793 11.13260121 -1.74194522 8.1288765 -2 4 C-1.0625 1.625 -1.0625 1.625 0 0 Z M3 2 C7 3 7 3 7 3 Z M2 6 C2.33 7.65 2.66 9.3 3 11 C4.32 11 5.64 11 7 11 C7.59070014 9.05396726 7.59070014 9.05396726 8 7 C6.93354885 5.70366379 6.93354885 5.70366379 4.4375 5.9375 C3.633125 5.958125 2.82875 5.97875 2 6 Z " fill="#000000" transform="translate(27,4)"/>
<path d="M0 0 C4.75 0.875 4.75 0.875 7 2 C6.48964169 6.3890815 5.47785723 9.33708062 3 13 C0.0625 12.1875 0.0625 12.1875 -3 11 C-4 8 -4 8 -3.22265625 5.95703125 C-2.83980469 5.24933594 -2.45695312 4.54164062 -2.0625 3.8125 C-1.68222656 3.09707031 -1.30195313 2.38164063 -0.91015625 1.64453125 C-0.60980469 1.10183594 -0.30945313 0.55914062 0 0 Z " fill="#000000" transform="translate(19,36)"/>
<path d="M0 0 C0.99 3.3 1.98 6.6 3 10 C-0.22791555 12.1519437 -1.28400809 12.20086443 -5 12 C-6.80230168 8.17010894 -7.19622241 5.21878192 -7 1 C-4 0 -4 0 0 0 Z M-3 5 C-2 7 -2 7 -2 7 Z " fill="#000000" transform="translate(46,36)"/>
<path d="M0 0 C2.64 0 5.28 0 8 0 C8 3.63 8 7.26 8 11 C5.36 11 2.72 11 0 11 C0 7.37 0 3.74 0 0 Z " fill="#000000" transform="translate(28,40)"/>
<path d="M0 0 C3.34097385 0.59660247 5.54300129 1.63075125 8 4 C8 5.32 8 6.64 8 8 C7.34 8 6.68 8 6 8 C5.67 7.34 5.34 6.68 5 6 C3.68 6.33 2.36 6.66 1 7 C0.67 4.69 0.34 2.38 0 0 Z " fill="#000000" transform="translate(35,18)"/>
<path d="M0 0 C-0.33 2.31 -0.66 4.62 -1 7 C-1.66 7 -2.32 7 -3 7 C-3.33 6.34 -3.66 5.68 -4 5 C-4.99 6.485 -4.99 6.485 -6 8 C-6.66 8 -7.32 8 -8 8 C-7.8125 5.6875 -7.8125 5.6875 -7 3 C-2.96551724 0 -2.96551724 0 0 0 Z " fill="#000000" transform="translate(28,18)"/>
<path d="M0 0 C1.32 0 2.64 0 4 0 C4 0.66 4 1.32 4 2 C3.34 2.66 2.68 3.32 2 4 C2.33 4.99 2.66 5.98 3 7 C1.35 6.67 -0.3 6.34 -2 6 C-1.125 1.125 -1.125 1.125 0 0 Z " fill="#000000" transform="translate(41,7)"/>
<path d="M0 0 C1.65 0 3.3 0 5 0 C5 0.99 5 1.98 5 3 C3.35 3 1.7 3 0 3 C0 2.01 0 1.02 0 0 Z " fill="#000000" transform="translate(29,19)"/>
</svg>
