<?xml version="1.0" encoding="UTF-8"?>
<svg version="1.1" xmlns="http://www.w3.org/2000/svg" width="64" height="64">
<path d="M0 0 C1.0209375 0.3403125 1.0209375 0.3403125 2.0625 0.6875 C5.14760117 1.58317453 7.84858553 1.7767754 11.0625 1.6875 C11.5575 3.1725 11.5575 3.1725 12.0625 4.6875 C13.7640625 4.6565625 13.7640625 4.6565625 15.5 4.625 C19.0625 4.6875 19.0625 4.6875 20.0625 5.6875 C20.15033542 7.90605264 20.16944609 10.12738496 20.16015625 12.34765625 C20.1587413 13.01212265 20.15732635 13.67658905 20.15586853 14.3611908 C20.15025518 16.49083899 20.13770054 18.62038339 20.125 20.75 C20.11998671 22.19075369 20.11542351 23.63150903 20.11132812 25.07226562 C20.10028145 28.61071102 20.08300792 32.14909539 20.0625 35.6875 C16.79174117 35.7455476 13.52111476 35.78111165 10.25 35.8125 C9.32123047 35.82925781 8.39246094 35.84601562 7.43554688 35.86328125 C6.54287109 35.86972656 5.65019531 35.87617187 4.73046875 35.8828125 C3.49719849 35.89852295 3.49719849 35.89852295 2.23901367 35.91455078 C0.0625 35.6875 0.0625 35.6875 -2.9375 33.6875 C-3.2675 34.3475 -3.5975 35.0075 -3.9375 35.6875 C-4.34589111 35.26339844 -4.75428223 34.83929688 -5.17504883 34.40234375 C-7.02551246 32.48961121 -8.8875117 30.58852254 -10.75 28.6875 C-11.39259766 28.01976563 -12.03519531 27.35203125 -12.69726562 26.6640625 C-13.31923828 26.03242188 -13.94121094 25.40078125 -14.58203125 24.75 C-15.15284424 24.16347656 -15.72365723 23.57695312 -16.31176758 22.97265625 C-17.9843522 21.37742773 -17.9843522 21.37742773 -20.9375 21.6875 C-20.9375 30.9275 -20.9375 40.1675 -20.9375 49.6875 C-6.4175 49.6875 8.1025 49.6875 23.0625 49.6875 C23.0625 40.4475 23.0625 31.2075 23.0625 21.6875 C22.4025 21.6875 21.7425 21.6875 21.0625 21.6875 C21.0625 20.3675 21.0625 19.0475 21.0625 17.6875 C23.06204746 17.64495644 25.06291636 17.64669217 27.0625 17.6875 C28.0625 18.6875 28.0625 18.6875 28.17602539 22.01391602 C28.17586629 23.48975556 28.17017314 24.96560069 28.16015625 26.44140625 C28.1587413 27.21685287 28.15732635 27.9922995 28.15586853 28.79124451 C28.15025345 31.27753494 28.13769846 33.7637366 28.125 36.25 C28.11998694 37.93163933 28.1154237 39.61328006 28.11132812 41.29492188 C28.10027913 45.42581566 28.08300445 49.55664276 28.0625 53.6875 C29.0525 53.6875 30.0425 53.6875 31.0625 53.6875 C31.0625 55.3375 31.0625 56.9875 31.0625 58.6875 C32.0525 59.1825 32.0525 59.1825 33.0625 59.6875 C33.0625 60.3475 33.0625 61.0075 33.0625 61.6875 C25.27406603 61.75693556 17.48570423 61.81027821 9.69703865 61.84293652 C6.0806296 61.85860901 2.46443192 61.87987553 -1.15185547 61.91381836 C-4.64019988 61.94635631 -8.12834068 61.96434108 -11.6168251 61.97213173 C-13.59893769 61.98039269 -15.58096809 62.00382087 -17.56295776 62.02738953 C-18.76405182 62.02761612 -19.96514587 62.02784271 -21.20263672 62.02807617 C-22.26408905 62.03473801 -23.32554138 62.04139984 -24.41915894 62.04826355 C-25.25021149 61.92921158 -26.08126404 61.81015961 -26.9375 61.6875 C-29.0894437 58.45958445 -29.13836443 57.40349191 -28.9375 53.6875 C-27.9475 53.6875 -26.9575 53.6875 -25.9375 53.6875 C-25.9375 42.1375 -25.9375 30.5875 -25.9375 18.6875 C-24.9475 18.3575 -23.9575 18.0275 -22.9375 17.6875 C-23.17855469 17.10871094 -23.41960938 16.52992187 -23.66796875 15.93359375 C-23.9375 13.6875 -23.9375 13.6875 -22.42578125 11.72265625 C-21.70777344 11.07167969 -20.98976563 10.42070312 -20.25 9.75 C-17.71931011 7.41195778 -15.81348403 5.50335507 -13.875 2.625 C-13.235625 1.985625 -12.59625 1.34625 -11.9375 0.6875 C-8.375 1 -8.375 1 -4.9375 1.6875 C-1.9375 -0.3125 -1.9375 -0.3125 0 0 Z M-3.9375 8.6875 C-3.9375 9.6775 -3.9375 10.6675 -3.9375 11.6875 C-3.2775 10.6975 -2.6175 9.7075 -1.9375 8.6875 C-2.5975 8.6875 -3.2575 8.6875 -3.9375 8.6875 Z M4.0625 8.6875 C3.7325 9.3475 3.4025 10.0075 3.0625 10.6875 C3.7225 10.6875 4.3825 10.6875 5.0625 10.6875 C4.7325 10.0275 4.4025 9.3675 4.0625 8.6875 Z M-11.9375 10.6875 C-11.6075 11.6775 -11.2775 12.6675 -10.9375 13.6875 C-10.6075 12.6975 -10.2775 11.7075 -9.9375 10.6875 C-10.5975 10.6875 -11.2575 10.6875 -11.9375 10.6875 Z M-18.9375 13.6875 C-19.2675 14.3475 -19.5975 15.0075 -19.9375 15.6875 C-18.9475 15.3575 -17.9575 15.0275 -16.9375 14.6875 C-17.5975 14.3575 -18.2575 14.0275 -18.9375 13.6875 Z M9.0625 15.6875 C7.02080515 18.59298882 6.0625 20.08892046 6.0625 23.6875 C7.0525 23.6875 8.0425 23.6875 9.0625 23.6875 C9.0625 24.3475 9.0625 25.0075 9.0625 25.6875 C10.7125 25.0275 12.3625 24.3675 14.0625 23.6875 C14.0625 22.6975 14.0625 21.7075 14.0625 20.6875 C13.4025 20.0275 12.7425 19.3675 12.0625 18.6875 C11.7325 17.6975 11.4025 16.7075 11.0625 15.6875 C10.4025 15.6875 9.7425 15.6875 9.0625 15.6875 Z M15.0625 29.6875 C14.7325 30.3475 14.4025 31.0075 14.0625 31.6875 C15.0525 31.3575 16.0425 31.0275 17.0625 30.6875 C16.4025 30.3575 15.7425 30.0275 15.0625 29.6875 Z M-5.9375 53.6875 C-5.9375 54.3475 -5.9375 55.0075 -5.9375 55.6875 C-1.3175 55.6875 3.3025 55.6875 8.0625 55.6875 C8.0625 55.0275 8.0625 54.3675 8.0625 53.6875 C3.4425 53.6875 -1.1775 53.6875 -5.9375 53.6875 Z " fill="#000000" transform="translate(30.9375,1.3125)"/>
<path d="M0 0 C5.61 0 11.22 0 17 0 C17 1.98 17 3.96 17 6 C11.39 6 5.78 6 0 6 C0 4.02 0 2.04 0 0 Z " fill="#000000" transform="translate(23,43)"/>
<path d="M0 0 C0.99 0 1.98 0 3 0 C3 0.66 3 1.32 3 2 C2.01 2 1.02 2 0 2 C0 1.34 0 0.68 0 0 Z " fill="#000000" transform="translate(0,61)"/>
</svg>
