<?xml version="1.0" encoding="UTF-8"?>
<svg version="1.1" xmlns="http://www.w3.org/2000/svg" width="60" height="60">
<path d="M0 0 C0.90104965 -0.00145523 1.8020993 -0.00291046 2.73045349 -0.00440979 C4.63438146 -0.00275021 6.53832276 0.00881768 8.44213867 0.02954102 C11.36369478 0.05852036 14.28343991 0.05014691 17.20507812 0.03710938 C19.05339427 0.04334587 20.90170467 0.05173612 22.75 0.0625 C24.06563683 0.05809654 24.06563683 0.05809654 25.40785217 0.05360413 C27.86547852 0.09204102 27.86547852 0.09204102 31.80859375 0.49609375 C33.92154631 3.66552259 34.06110304 4.49239328 33.99609375 8.12109375 C33.98964844 8.91773438 33.98320313 9.714375 33.9765625 10.53515625 C33.80859375 12.49609375 33.80859375 12.49609375 32.80859375 13.49609375 C33.79859375 14.15609375 34.78859375 14.81609375 35.80859375 15.49609375 C36.21703298 18.20813027 35.94196242 20.73980795 35.80859375 23.49609375 C34.15859375 23.49609375 32.50859375 23.49609375 30.80859375 23.49609375 C30.75960937 24.24375 30.710625 24.99140625 30.66015625 25.76171875 C30.58539063 26.7465625 30.510625 27.73140625 30.43359375 28.74609375 C30.36398438 29.720625 30.294375 30.69515625 30.22265625 31.69921875 C29.81949027 34.42249083 29.28069867 36.18732488 27.80859375 38.49609375 C24.75875379 40.02101373 22.16625685 39.73171923 18.80859375 39.49609375 C16.87109375 38.43359375 16.87109375 38.43359375 15.80859375 36.49609375 C15.16540845 30.49303096 15.16540845 30.49303096 17.05859375 27.55859375 C18.80859375 26.49609375 18.80859375 26.49609375 22.80859375 26.49609375 C22.80859375 21.54609375 22.80859375 16.59609375 22.80859375 11.49609375 C25.44859375 11.82609375 28.08859375 12.15609375 30.80859375 12.49609375 C30.31359375 8.53609375 30.31359375 8.53609375 29.80859375 4.49609375 C17.59859375 4.82609375 5.38859375 5.15609375 -7.19140625 5.49609375 C-7.52140625 13.41609375 -7.85140625 21.33609375 -8.19140625 29.49609375 C-0.60140625 29.49609375 6.98859375 29.49609375 14.80859375 29.49609375 C14.80859375 30.48609375 14.80859375 31.47609375 14.80859375 32.49609375 C4.41359375 32.99109375 4.41359375 32.99109375 -6.19140625 33.49609375 C0.73859375 33.82609375 7.66859375 34.15609375 14.80859375 34.49609375 C14.80859375 35.48609375 14.80859375 36.47609375 14.80859375 37.49609375 C10.87134049 37.61203959 6.93452452 37.68325839 2.99609375 37.74609375 C1.87654297 37.77960937 0.75699219 37.813125 -0.39648438 37.84765625 C-1.46962891 37.86054687 -2.54277344 37.8734375 -3.6484375 37.88671875 C-4.6381958 37.90766602 -5.6279541 37.92861328 -6.64770508 37.95019531 C-9.19140625 37.49609375 -9.19140625 37.49609375 -11.01293945 35.88378906 C-12.55627934 32.75682323 -12.57975546 30.386166 -12.58984375 26.90234375 C-12.59371094 25.62488281 -12.59757813 24.34742187 -12.6015625 23.03125 C-12.59527832 22.36883301 -12.58899414 21.70641602 -12.58251953 21.02392578 C-12.56645511 19.00224286 -12.5823839 16.98255862 -12.6015625 14.9609375 C-12.59769531 13.68347656 -12.59382812 12.40601563 -12.58984375 11.08984375 C-12.58645996 9.92130859 -12.58307617 8.75277344 -12.57958984 7.54882812 C-11.55613402 -0.49978295 -6.95748533 -0.08931915 0 0 Z M26.80859375 15.49609375 C26.80859375 16.48609375 26.80859375 17.47609375 26.80859375 18.49609375 C29.28359375 18.99109375 29.28359375 18.99109375 31.80859375 19.49609375 C31.47859375 18.50609375 31.14859375 17.51609375 30.80859375 16.49609375 C28.79351017 15.76285579 28.79351017 15.76285579 26.80859375 15.49609375 Z M19.80859375 30.49609375 C19.80859375 32.14609375 19.80859375 33.79609375 19.80859375 35.49609375 C21.70038578 36.17757605 21.70038578 36.17757605 23.80859375 36.49609375 C24.46859375 35.83609375 25.12859375 35.17609375 25.80859375 34.49609375 C25.80859375 33.17609375 25.80859375 31.85609375 25.80859375 30.49609375 C22.75946147 29.48498282 22.75946147 29.48498282 19.80859375 30.49609375 Z " fill="#000000" transform="translate(17.19140625,8.50390625)"/>
<path d="M0 0 C6.75 0.75 6.75 0.75 9 3 C11.06874034 3.6425235 11.06874034 3.6425235 13 4 C13 4.66 13 5.32 13 6 C13.99 6.33 14.98 6.66 16 7 C16 8.32 16 9.64 16 11 C15.01 11 14.02 11 13 11 C13 11.66 13 12.32 13 13 C11.75264433 13.6509259 10.50198168 14.29551669 9.25 14.9375 C8.55390625 15.29714844 7.8578125 15.65679687 7.140625 16.02734375 C5.08213126 16.96268123 3.22728335 17.61748829 1 18 C0 17 0 17 -0.09765625 13.18359375 C-0.09098089 11.60153318 -0.07901875 10.01948841 -0.0625 8.4375 C-0.05798828 7.63119141 -0.05347656 6.82488281 -0.04882812 5.99414062 C-0.03700518 3.99606244 -0.01906914 1.99802217 0 0 Z M3 4 C3 6.97 3 9.94 3 13 C5.64 11.68 8.28 10.36 11 9 C8.31158141 6.74754119 6.35358125 5.11786042 3 4 Z " fill="#000000" transform="translate(21,17)"/>
</svg>
